M48
; DRILL file {KiCad (5.1.4)-1} date 12/31/2020 1:26:23 AM
; FORMAT={-:-/ absolute / inch / decimal}
; #@! TF.CreationDate,2020-12-31T01:26:23+09:00
; #@! TF.GenerationSoftware,Kicad,Pcbnew,(5.1.4)-1
; #@! TF.FileFunction,Plated,1,2,PTH
FMAT,2
INCH
T1C0.0236
T2C0.1693
%
G90
G05
T1
X1.3593Y-6.3878
X1.3964Y-6.298
X1.3964Y-6.4776
X1.4862Y-6.2608
X1.4862Y-6.5148
X1.576Y-6.298
X1.576Y-6.4776
X1.6132Y-6.3878
X6.2608Y-6.3878
X6.298Y-6.298
X6.298Y-6.4776
X6.3878Y-6.2608
X6.3878Y-6.5148
X6.4776Y-6.298
X6.4776Y-6.4776
X6.5148Y-6.3878
X6.2608Y-1.4862
X6.298Y-1.3964
X6.298Y-1.576
X6.3878Y-1.3593
X6.3878Y-1.6132
X6.4776Y-1.3964
X6.4776Y-1.576
X6.5148Y-1.4862
X1.3593Y-1.4862
X1.3964Y-1.3964
X1.3964Y-1.576
X1.4862Y-1.3593
X1.4862Y-1.6132
X1.576Y-1.3964
X1.576Y-1.576
X1.6132Y-1.4862
T2
X1.4862Y-6.3878
X6.3878Y-6.3878
X6.3878Y-1.4862
X1.4862Y-1.4862
T0
M30
