G04 #@! TF.GenerationSoftware,KiCad,Pcbnew,(5.1.4)-1*
G04 #@! TF.CreationDate,2020-12-31T01:26:22+09:00*
G04 #@! TF.ProjectId,fan-vent-blocker,66616e2d-7665-46e7-942d-626c6f636b65,rev?*
G04 #@! TF.SameCoordinates,Original*
G04 #@! TF.FileFunction,Copper,L1,Top*
G04 #@! TF.FilePolarity,Positive*
%FSLAX46Y46*%
G04 Gerber Fmt 4.6, Leading zero omitted, Abs format (unit mm)*
G04 Created by KiCad (PCBNEW (5.1.4)-1) date 2020-12-31 01:26:22*
%MOMM*%
%LPD*%
G04 APERTURE LIST*
%ADD10C,0.900000*%
%ADD11C,8.600000*%
%ADD12C,0.254000*%
G04 APERTURE END LIST*
D10*
X40030419Y-159969581D03*
X37750000Y-159025000D03*
X35469581Y-159969581D03*
X34525000Y-162250000D03*
X35469581Y-164530419D03*
X37750000Y-165475000D03*
X40030419Y-164530419D03*
X40975000Y-162250000D03*
D11*
X37750000Y-162250000D03*
D10*
X164530419Y-35469581D03*
X162250000Y-34525000D03*
X159969581Y-35469581D03*
X159025000Y-37750000D03*
X159969581Y-40030419D03*
X162250000Y-40975000D03*
X164530419Y-40030419D03*
X165475000Y-37750000D03*
D11*
X162250000Y-37750000D03*
D10*
X164530419Y-159969581D03*
X162250000Y-159025000D03*
X159969581Y-159969581D03*
X159025000Y-162250000D03*
X159969581Y-164530419D03*
X162250000Y-165475000D03*
X164530419Y-164530419D03*
X165475000Y-162250000D03*
D11*
X162250000Y-162250000D03*
D10*
X40030419Y-35469581D03*
X37750000Y-34525000D03*
X35469581Y-35469581D03*
X34525000Y-37750000D03*
X35469581Y-40030419D03*
X37750000Y-40975000D03*
X40030419Y-40030419D03*
X40975000Y-37750000D03*
D11*
X37750000Y-37750000D03*
D12*
G36*
X165768083Y-30731173D02*
G01*
X166511891Y-30934656D01*
X167207905Y-31266638D01*
X167834130Y-31716626D01*
X168370777Y-32270403D01*
X168800871Y-32910451D01*
X169110829Y-33616553D01*
X169292065Y-34371457D01*
X169340001Y-35024220D01*
X169340000Y-164970608D01*
X169268827Y-165768083D01*
X169065344Y-166511890D01*
X168733363Y-167207904D01*
X168283374Y-167834130D01*
X167729597Y-168370777D01*
X167089549Y-168800871D01*
X166383447Y-169110829D01*
X165628543Y-169292065D01*
X164975793Y-169340000D01*
X35029392Y-169340000D01*
X34231917Y-169268827D01*
X33488110Y-169065344D01*
X32792096Y-168733363D01*
X32165870Y-168283374D01*
X31629223Y-167729597D01*
X31199129Y-167089549D01*
X30889171Y-166383447D01*
X30707935Y-165628543D01*
X30660000Y-164975793D01*
X30660000Y-35029392D01*
X30731173Y-34231917D01*
X30934656Y-33488109D01*
X31266638Y-32792095D01*
X31716626Y-32165870D01*
X32270403Y-31629223D01*
X32910451Y-31199129D01*
X33616553Y-30889171D01*
X34371457Y-30707935D01*
X35024207Y-30660000D01*
X164970608Y-30660000D01*
X165768083Y-30731173D01*
X165768083Y-30731173D01*
G37*
X165768083Y-30731173D02*
X166511891Y-30934656D01*
X167207905Y-31266638D01*
X167834130Y-31716626D01*
X168370777Y-32270403D01*
X168800871Y-32910451D01*
X169110829Y-33616553D01*
X169292065Y-34371457D01*
X169340001Y-35024220D01*
X169340000Y-164970608D01*
X169268827Y-165768083D01*
X169065344Y-166511890D01*
X168733363Y-167207904D01*
X168283374Y-167834130D01*
X167729597Y-168370777D01*
X167089549Y-168800871D01*
X166383447Y-169110829D01*
X165628543Y-169292065D01*
X164975793Y-169340000D01*
X35029392Y-169340000D01*
X34231917Y-169268827D01*
X33488110Y-169065344D01*
X32792096Y-168733363D01*
X32165870Y-168283374D01*
X31629223Y-167729597D01*
X31199129Y-167089549D01*
X30889171Y-166383447D01*
X30707935Y-165628543D01*
X30660000Y-164975793D01*
X30660000Y-35029392D01*
X30731173Y-34231917D01*
X30934656Y-33488109D01*
X31266638Y-32792095D01*
X31716626Y-32165870D01*
X32270403Y-31629223D01*
X32910451Y-31199129D01*
X33616553Y-30889171D01*
X34371457Y-30707935D01*
X35024207Y-30660000D01*
X164970608Y-30660000D01*
X165768083Y-30731173D01*
M02*
