G04 #@! TF.GenerationSoftware,KiCad,Pcbnew,(5.1.4)-1*
G04 #@! TF.CreationDate,2020-12-31T01:26:22+09:00*
G04 #@! TF.ProjectId,fan-vent-blocker,66616e2d-7665-46e7-942d-626c6f636b65,rev?*
G04 #@! TF.SameCoordinates,Original*
G04 #@! TF.FileFunction,Legend,Top*
G04 #@! TF.FilePolarity,Positive*
%FSLAX46Y46*%
G04 Gerber Fmt 4.6, Leading zero omitted, Abs format (unit mm)*
G04 Created by KiCad (PCBNEW (5.1.4)-1) date 2020-12-31 01:26:22*
%MOMM*%
%LPD*%
G04 APERTURE LIST*
%ADD10C,0.300000*%
%ADD11C,0.010000*%
%ADD12C,1.002000*%
%ADD13C,8.702000*%
G04 APERTURE END LIST*
%LPC*%
D10*
X77000000Y-163178571D02*
X76142857Y-163178571D01*
X76571428Y-163178571D02*
X76571428Y-161678571D01*
X76428571Y-161892857D01*
X76285714Y-162035714D01*
X76142857Y-162107142D01*
X78285714Y-162178571D02*
X78285714Y-163178571D01*
X77928571Y-161607142D02*
X77571428Y-162678571D01*
X78500000Y-162678571D01*
X79357142Y-161678571D02*
X79500000Y-161678571D01*
X79642857Y-161750000D01*
X79714285Y-161821428D01*
X79785714Y-161964285D01*
X79857142Y-162250000D01*
X79857142Y-162607142D01*
X79785714Y-162892857D01*
X79714285Y-163035714D01*
X79642857Y-163107142D01*
X79500000Y-163178571D01*
X79357142Y-163178571D01*
X79214285Y-163107142D01*
X79142857Y-163035714D01*
X79071428Y-162892857D01*
X79000000Y-162607142D01*
X79000000Y-162250000D01*
X79071428Y-161964285D01*
X79142857Y-161821428D01*
X79214285Y-161750000D01*
X79357142Y-161678571D01*
X80500000Y-163178571D02*
X80500000Y-162178571D01*
X80500000Y-162321428D02*
X80571428Y-162250000D01*
X80714285Y-162178571D01*
X80928571Y-162178571D01*
X81071428Y-162250000D01*
X81142857Y-162392857D01*
X81142857Y-163178571D01*
X81142857Y-162392857D02*
X81214285Y-162250000D01*
X81357142Y-162178571D01*
X81571428Y-162178571D01*
X81714285Y-162250000D01*
X81785714Y-162392857D01*
X81785714Y-163178571D01*
X82500000Y-163178571D02*
X82500000Y-162178571D01*
X82500000Y-162321428D02*
X82571428Y-162250000D01*
X82714285Y-162178571D01*
X82928571Y-162178571D01*
X83071428Y-162250000D01*
X83142857Y-162392857D01*
X83142857Y-163178571D01*
X83142857Y-162392857D02*
X83214285Y-162250000D01*
X83357142Y-162178571D01*
X83571428Y-162178571D01*
X83714285Y-162250000D01*
X83785714Y-162392857D01*
X83785714Y-163178571D01*
X86142857Y-162392857D02*
X85642857Y-162392857D01*
X85642857Y-163178571D02*
X85642857Y-161678571D01*
X86357142Y-161678571D01*
X87571428Y-163178571D02*
X87571428Y-162392857D01*
X87500000Y-162250000D01*
X87357142Y-162178571D01*
X87071428Y-162178571D01*
X86928571Y-162250000D01*
X87571428Y-163107142D02*
X87428571Y-163178571D01*
X87071428Y-163178571D01*
X86928571Y-163107142D01*
X86857142Y-162964285D01*
X86857142Y-162821428D01*
X86928571Y-162678571D01*
X87071428Y-162607142D01*
X87428571Y-162607142D01*
X87571428Y-162535714D01*
X88285714Y-162178571D02*
X88285714Y-163178571D01*
X88285714Y-162321428D02*
X88357142Y-162250000D01*
X88500000Y-162178571D01*
X88714285Y-162178571D01*
X88857142Y-162250000D01*
X88928571Y-162392857D01*
X88928571Y-163178571D01*
X90571428Y-161678571D02*
X91071428Y-163178571D01*
X91571428Y-161678571D01*
X92642857Y-163107142D02*
X92500000Y-163178571D01*
X92214285Y-163178571D01*
X92071428Y-163107142D01*
X92000000Y-162964285D01*
X92000000Y-162392857D01*
X92071428Y-162250000D01*
X92214285Y-162178571D01*
X92500000Y-162178571D01*
X92642857Y-162250000D01*
X92714285Y-162392857D01*
X92714285Y-162535714D01*
X92000000Y-162678571D01*
X93357142Y-162178571D02*
X93357142Y-163178571D01*
X93357142Y-162321428D02*
X93428571Y-162250000D01*
X93571428Y-162178571D01*
X93785714Y-162178571D01*
X93928571Y-162250000D01*
X94000000Y-162392857D01*
X94000000Y-163178571D01*
X94500000Y-162178571D02*
X95071428Y-162178571D01*
X94714285Y-161678571D02*
X94714285Y-162964285D01*
X94785714Y-163107142D01*
X94928571Y-163178571D01*
X95071428Y-163178571D01*
X97214285Y-162392857D02*
X97428571Y-162464285D01*
X97500000Y-162535714D01*
X97571428Y-162678571D01*
X97571428Y-162892857D01*
X97500000Y-163035714D01*
X97428571Y-163107142D01*
X97285714Y-163178571D01*
X96714285Y-163178571D01*
X96714285Y-161678571D01*
X97214285Y-161678571D01*
X97357142Y-161750000D01*
X97428571Y-161821428D01*
X97500000Y-161964285D01*
X97500000Y-162107142D01*
X97428571Y-162250000D01*
X97357142Y-162321428D01*
X97214285Y-162392857D01*
X96714285Y-162392857D01*
X98428571Y-163178571D02*
X98285714Y-163107142D01*
X98214285Y-162964285D01*
X98214285Y-161678571D01*
X99214285Y-163178571D02*
X99071428Y-163107142D01*
X99000000Y-163035714D01*
X98928571Y-162892857D01*
X98928571Y-162464285D01*
X99000000Y-162321428D01*
X99071428Y-162250000D01*
X99214285Y-162178571D01*
X99428571Y-162178571D01*
X99571428Y-162250000D01*
X99642857Y-162321428D01*
X99714285Y-162464285D01*
X99714285Y-162892857D01*
X99642857Y-163035714D01*
X99571428Y-163107142D01*
X99428571Y-163178571D01*
X99214285Y-163178571D01*
X101000000Y-163107142D02*
X100857142Y-163178571D01*
X100571428Y-163178571D01*
X100428571Y-163107142D01*
X100357142Y-163035714D01*
X100285714Y-162892857D01*
X100285714Y-162464285D01*
X100357142Y-162321428D01*
X100428571Y-162250000D01*
X100571428Y-162178571D01*
X100857142Y-162178571D01*
X101000000Y-162250000D01*
X101642857Y-163178571D02*
X101642857Y-161678571D01*
X101785714Y-162607142D02*
X102214285Y-163178571D01*
X102214285Y-162178571D02*
X101642857Y-162750000D01*
X103428571Y-163107142D02*
X103285714Y-163178571D01*
X103000000Y-163178571D01*
X102857142Y-163107142D01*
X102785714Y-162964285D01*
X102785714Y-162392857D01*
X102857142Y-162250000D01*
X103000000Y-162178571D01*
X103285714Y-162178571D01*
X103428571Y-162250000D01*
X103500000Y-162392857D01*
X103500000Y-162535714D01*
X102785714Y-162678571D01*
X104142857Y-163178571D02*
X104142857Y-162178571D01*
X104142857Y-162464285D02*
X104214285Y-162321428D01*
X104285714Y-162250000D01*
X104428571Y-162178571D01*
X104571428Y-162178571D01*
X106571428Y-163678571D02*
X106571428Y-161535714D01*
X108642857Y-162178571D02*
X108928571Y-163178571D01*
X109214285Y-162464285D01*
X109500000Y-163178571D01*
X109785714Y-162178571D01*
X110214285Y-162178571D02*
X110500000Y-163178571D01*
X110785714Y-162464285D01*
X111071428Y-163178571D01*
X111357142Y-162178571D01*
X111785714Y-162178571D02*
X112071428Y-163178571D01*
X112357142Y-162464285D01*
X112642857Y-163178571D01*
X112928571Y-162178571D01*
X113500000Y-163035714D02*
X113571428Y-163107142D01*
X113500000Y-163178571D01*
X113428571Y-163107142D01*
X113500000Y-163035714D01*
X113500000Y-163178571D01*
X114857142Y-163178571D02*
X114857142Y-162392857D01*
X114785714Y-162250000D01*
X114642857Y-162178571D01*
X114357142Y-162178571D01*
X114214285Y-162250000D01*
X114857142Y-163107142D02*
X114714285Y-163178571D01*
X114357142Y-163178571D01*
X114214285Y-163107142D01*
X114142857Y-162964285D01*
X114142857Y-162821428D01*
X114214285Y-162678571D01*
X114357142Y-162607142D01*
X114714285Y-162607142D01*
X114857142Y-162535714D01*
X115571428Y-163178571D02*
X115571428Y-162178571D01*
X115571428Y-161678571D02*
X115500000Y-161750000D01*
X115571428Y-161821428D01*
X115642857Y-161750000D01*
X115571428Y-161678571D01*
X115571428Y-161821428D01*
X116571428Y-161678571D02*
X116714285Y-161678571D01*
X116857142Y-161750000D01*
X116928571Y-161821428D01*
X117000000Y-161964285D01*
X117071428Y-162250000D01*
X117071428Y-162607142D01*
X117000000Y-162892857D01*
X116928571Y-163035714D01*
X116857142Y-163107142D01*
X116714285Y-163178571D01*
X116571428Y-163178571D01*
X116428571Y-163107142D01*
X116357142Y-163035714D01*
X116285714Y-162892857D01*
X116214285Y-162607142D01*
X116214285Y-162250000D01*
X116285714Y-161964285D01*
X116357142Y-161821428D01*
X116428571Y-161750000D01*
X116571428Y-161678571D01*
X117571428Y-161678571D02*
X118500000Y-161678571D01*
X118000000Y-162250000D01*
X118214285Y-162250000D01*
X118357142Y-162321428D01*
X118428571Y-162392857D01*
X118500000Y-162535714D01*
X118500000Y-162892857D01*
X118428571Y-163035714D01*
X118357142Y-163107142D01*
X118214285Y-163178571D01*
X117785714Y-163178571D01*
X117642857Y-163107142D01*
X117571428Y-163035714D01*
X119142857Y-163035714D02*
X119214285Y-163107142D01*
X119142857Y-163178571D01*
X119071428Y-163107142D01*
X119142857Y-163035714D01*
X119142857Y-163178571D01*
X120500000Y-163107142D02*
X120357142Y-163178571D01*
X120071428Y-163178571D01*
X119928571Y-163107142D01*
X119857142Y-163035714D01*
X119785714Y-162892857D01*
X119785714Y-162464285D01*
X119857142Y-162321428D01*
X119928571Y-162250000D01*
X120071428Y-162178571D01*
X120357142Y-162178571D01*
X120500000Y-162250000D01*
X121357142Y-163178571D02*
X121214285Y-163107142D01*
X121142857Y-163035714D01*
X121071428Y-162892857D01*
X121071428Y-162464285D01*
X121142857Y-162321428D01*
X121214285Y-162250000D01*
X121357142Y-162178571D01*
X121571428Y-162178571D01*
X121714285Y-162250000D01*
X121785714Y-162321428D01*
X121857142Y-162464285D01*
X121857142Y-162892857D01*
X121785714Y-163035714D01*
X121714285Y-163107142D01*
X121571428Y-163178571D01*
X121357142Y-163178571D01*
X122500000Y-163178571D02*
X122500000Y-162178571D01*
X122500000Y-162321428D02*
X122571428Y-162250000D01*
X122714285Y-162178571D01*
X122928571Y-162178571D01*
X123071428Y-162250000D01*
X123142857Y-162392857D01*
X123142857Y-163178571D01*
X123142857Y-162392857D02*
X123214285Y-162250000D01*
X123357142Y-162178571D01*
X123571428Y-162178571D01*
X123714285Y-162250000D01*
X123785714Y-162392857D01*
X123785714Y-163178571D01*
D11*
G36*
X100812799Y-95394133D02*
G01*
X99085600Y-95394133D01*
X99085600Y-93666933D01*
X100812799Y-93666933D01*
X100812799Y-95394133D01*
X100812799Y-95394133D01*
G37*
X100812799Y-95394133D02*
X99085600Y-95394133D01*
X99085600Y-93666933D01*
X100812799Y-93666933D01*
X100812799Y-95394133D01*
G36*
X102539999Y-98746933D02*
G01*
X100812799Y-98746933D01*
X100812799Y-97121333D01*
X102539999Y-97121333D01*
X102539999Y-98746933D01*
X102539999Y-98746933D01*
G37*
X102539999Y-98746933D02*
X100812799Y-98746933D01*
X100812799Y-97121333D01*
X102539999Y-97121333D01*
X102539999Y-98746933D01*
G36*
X99085600Y-98746933D02*
G01*
X97460000Y-98746933D01*
X97460000Y-97121333D01*
X99085600Y-97121333D01*
X99085600Y-98746933D01*
X99085600Y-98746933D01*
G37*
X99085600Y-98746933D02*
X97460000Y-98746933D01*
X97460000Y-97121333D01*
X99085600Y-97121333D01*
X99085600Y-98746933D01*
G36*
X104165600Y-102201333D02*
G01*
X102539999Y-102201333D01*
X102539999Y-100474133D01*
X104165600Y-100474133D01*
X104165600Y-102201333D01*
X104165600Y-102201333D01*
G37*
X104165600Y-102201333D02*
X102539999Y-102201333D01*
X102539999Y-100474133D01*
X104165600Y-100474133D01*
X104165600Y-102201333D01*
G36*
X100812799Y-102201333D02*
G01*
X99085600Y-102201333D01*
X99085600Y-100474133D01*
X100812799Y-100474133D01*
X100812799Y-102201333D01*
X100812799Y-102201333D01*
G37*
X100812799Y-102201333D02*
X99085600Y-102201333D01*
X99085600Y-100474133D01*
X100812799Y-100474133D01*
X100812799Y-102201333D01*
G36*
X97460000Y-102201333D02*
G01*
X95732800Y-102201333D01*
X95732800Y-100474133D01*
X97460000Y-100474133D01*
X97460000Y-102201333D01*
X97460000Y-102201333D01*
G37*
X97460000Y-102201333D02*
X95732800Y-102201333D01*
X95732800Y-100474133D01*
X97460000Y-100474133D01*
X97460000Y-102201333D01*
G36*
X105892800Y-105554133D02*
G01*
X104165600Y-105554133D01*
X104165600Y-103826933D01*
X105892800Y-103826933D01*
X105892800Y-105554133D01*
X105892800Y-105554133D01*
G37*
X105892800Y-105554133D02*
X104165600Y-105554133D01*
X104165600Y-103826933D01*
X105892800Y-103826933D01*
X105892800Y-105554133D01*
G36*
X95732800Y-105554133D02*
G01*
X94005599Y-105554133D01*
X94005599Y-103826933D01*
X95732800Y-103826933D01*
X95732800Y-105554133D01*
X95732800Y-105554133D01*
G37*
X95732800Y-105554133D02*
X94005599Y-105554133D01*
X94005599Y-103826933D01*
X95732800Y-103826933D01*
X95732800Y-105554133D01*
G36*
X100016933Y-87319656D02*
G01*
X100546505Y-87325504D01*
X101023142Y-87343240D01*
X101460873Y-87374587D01*
X101873731Y-87421267D01*
X102275745Y-87485003D01*
X102680946Y-87567517D01*
X103103365Y-87670532D01*
X103296553Y-87722318D01*
X104186355Y-88000667D01*
X105048597Y-88339164D01*
X105880011Y-88736117D01*
X106677330Y-89189836D01*
X107437287Y-89698629D01*
X108086440Y-90202097D01*
X108759159Y-90802525D01*
X109387796Y-91448691D01*
X109969433Y-92136040D01*
X110501154Y-92860018D01*
X110980041Y-93616070D01*
X111403177Y-94399640D01*
X111767645Y-95206173D01*
X112070528Y-96031116D01*
X112278545Y-96747960D01*
X112419646Y-97345233D01*
X112527849Y-97908158D01*
X112606324Y-98459720D01*
X112658240Y-99022904D01*
X112686765Y-99620693D01*
X112689554Y-99729066D01*
X112677951Y-100660466D01*
X112600320Y-101576875D01*
X112456684Y-102478167D01*
X112247067Y-103364218D01*
X111971493Y-104234900D01*
X111697585Y-104934344D01*
X111577768Y-105212808D01*
X111475102Y-105443881D01*
X111381795Y-105643147D01*
X111290055Y-105826189D01*
X111192090Y-106008589D01*
X111080108Y-106205931D01*
X110955841Y-106417733D01*
X110447174Y-107212490D01*
X109892061Y-107957984D01*
X109289936Y-108654783D01*
X108640234Y-109303451D01*
X107942388Y-109904554D01*
X107195835Y-110458657D01*
X106417733Y-110955841D01*
X106192327Y-111087975D01*
X105996431Y-111198808D01*
X105814463Y-111296131D01*
X105630839Y-111387736D01*
X105429977Y-111481415D01*
X105196294Y-111584960D01*
X104934344Y-111697585D01*
X104523748Y-111866322D01*
X104145220Y-112007287D01*
X103773532Y-112128833D01*
X103383457Y-112239312D01*
X103031066Y-112327773D01*
X102329129Y-112479472D01*
X101658859Y-112589026D01*
X101000819Y-112658742D01*
X100335568Y-112690925D01*
X99949200Y-112693388D01*
X99730667Y-112691191D01*
X99525350Y-112688181D01*
X99346660Y-112684629D01*
X99208011Y-112680802D01*
X99122815Y-112676971D01*
X99119466Y-112676730D01*
X98197125Y-112574536D01*
X97289362Y-112408193D01*
X96399843Y-112179057D01*
X95532235Y-111888480D01*
X94690202Y-111537819D01*
X93877410Y-111128427D01*
X93097524Y-110661659D01*
X92453446Y-110213528D01*
X91715621Y-109623249D01*
X91030038Y-108990240D01*
X90397655Y-108315900D01*
X89819429Y-107601629D01*
X89296316Y-106848826D01*
X88829273Y-106058889D01*
X88419257Y-105233217D01*
X88067226Y-104373210D01*
X87774135Y-103480267D01*
X87722318Y-103296553D01*
X87609822Y-102862231D01*
X87518579Y-102451246D01*
X87446865Y-102049567D01*
X87392959Y-101643164D01*
X87355137Y-101218005D01*
X87331676Y-100760061D01*
X87320855Y-100255301D01*
X87319656Y-100016933D01*
X87322539Y-99780726D01*
X89592720Y-99780726D01*
X89593162Y-100122649D01*
X89600266Y-100462551D01*
X89613904Y-100783089D01*
X89633945Y-101066921D01*
X89649816Y-101219199D01*
X89785811Y-102061003D01*
X89984858Y-102878562D01*
X90246190Y-103670279D01*
X90569042Y-104434554D01*
X90952647Y-105169789D01*
X91396239Y-105874386D01*
X91899054Y-106546745D01*
X92460323Y-107185267D01*
X92555622Y-107284309D01*
X93128355Y-107826493D01*
X93750017Y-108329686D01*
X94409091Y-108785450D01*
X95094054Y-109185349D01*
X95289419Y-109286415D01*
X95606894Y-109442785D01*
X95885258Y-109571720D01*
X96143378Y-109680808D01*
X96400120Y-109777637D01*
X96674351Y-109869795D01*
X96952000Y-109955103D01*
X97759307Y-110165932D01*
X98551845Y-110312922D01*
X99335796Y-110396645D01*
X100117344Y-110417674D01*
X100902674Y-110376580D01*
X101186586Y-110346797D01*
X101985867Y-110223305D01*
X102752080Y-110044920D01*
X103495922Y-109808441D01*
X104228089Y-109510672D01*
X104641773Y-109313560D01*
X105369803Y-108914974D01*
X106049978Y-108472369D01*
X106685532Y-107982822D01*
X107279698Y-107443412D01*
X107835708Y-106851219D01*
X108356796Y-106203320D01*
X108818739Y-105539240D01*
X108925941Y-105363488D01*
X109051053Y-105141077D01*
X109186307Y-104887450D01*
X109323940Y-104618053D01*
X109456185Y-104348330D01*
X109575277Y-104093724D01*
X109673450Y-103869681D01*
X109730784Y-103725333D01*
X109999020Y-102908091D01*
X110201242Y-102085739D01*
X110337278Y-101260586D01*
X110406956Y-100434943D01*
X110410103Y-99611121D01*
X110346547Y-98791430D01*
X110216115Y-97978181D01*
X110174287Y-97781733D01*
X110030718Y-97200217D01*
X109867274Y-96661834D01*
X109675538Y-96142962D01*
X109447096Y-95619977D01*
X109286415Y-95289419D01*
X108886608Y-94569002D01*
X108430824Y-93884472D01*
X107922338Y-93238903D01*
X107364426Y-92635366D01*
X106760364Y-92076933D01*
X106113426Y-91566676D01*
X105426889Y-91107668D01*
X104704028Y-90702981D01*
X104088854Y-90414846D01*
X103356572Y-90131562D01*
X102620343Y-89909704D01*
X101871597Y-89747534D01*
X101101763Y-89643310D01*
X100302273Y-89595293D01*
X100033866Y-89591496D01*
X99188664Y-89618677D01*
X98371052Y-89706758D01*
X97577730Y-89856739D01*
X96805395Y-90069617D01*
X96050746Y-90346390D01*
X95310480Y-90688057D01*
X94581296Y-91095615D01*
X94151656Y-91369575D01*
X93556741Y-91802760D01*
X92984163Y-92291319D01*
X92440921Y-92827045D01*
X91934016Y-93401731D01*
X91470448Y-94007171D01*
X91057216Y-94635159D01*
X90701320Y-95277487D01*
X90552858Y-95588608D01*
X90290872Y-96206674D01*
X90076552Y-96800759D01*
X89904791Y-97389337D01*
X89770477Y-97990885D01*
X89668504Y-98623876D01*
X89632660Y-98916266D01*
X89612340Y-99160192D01*
X89599070Y-99454126D01*
X89592720Y-99780726D01*
X87322539Y-99780726D01*
X87327103Y-99406819D01*
X87352164Y-98848454D01*
X87397281Y-98327572D01*
X87464896Y-97829909D01*
X87557450Y-97341202D01*
X87677384Y-96847186D01*
X87827140Y-96333596D01*
X88009160Y-95786169D01*
X88076122Y-95597333D01*
X88410563Y-94766531D01*
X88806682Y-93962973D01*
X89263667Y-93187776D01*
X89780703Y-92442062D01*
X90356977Y-91726948D01*
X90991674Y-91043554D01*
X91683981Y-90393000D01*
X92139822Y-90008232D01*
X92506024Y-89728794D01*
X92922191Y-89441536D01*
X93372790Y-89155893D01*
X93842287Y-88881302D01*
X94315150Y-88627198D01*
X94775845Y-88403019D01*
X94801466Y-88391315D01*
X95099965Y-88263858D01*
X95446338Y-88129945D01*
X95821939Y-87995888D01*
X96208123Y-87867996D01*
X96586246Y-87752581D01*
X96937660Y-87655952D01*
X97073706Y-87622274D01*
X97471464Y-87533666D01*
X97851087Y-87462582D01*
X98226574Y-87407583D01*
X98611922Y-87367230D01*
X99021132Y-87340083D01*
X99468200Y-87324704D01*
X99967126Y-87319652D01*
X100016933Y-87319656D01*
X100016933Y-87319656D01*
G37*
X100016933Y-87319656D02*
X100546505Y-87325504D01*
X101023142Y-87343240D01*
X101460873Y-87374587D01*
X101873731Y-87421267D01*
X102275745Y-87485003D01*
X102680946Y-87567517D01*
X103103365Y-87670532D01*
X103296553Y-87722318D01*
X104186355Y-88000667D01*
X105048597Y-88339164D01*
X105880011Y-88736117D01*
X106677330Y-89189836D01*
X107437287Y-89698629D01*
X108086440Y-90202097D01*
X108759159Y-90802525D01*
X109387796Y-91448691D01*
X109969433Y-92136040D01*
X110501154Y-92860018D01*
X110980041Y-93616070D01*
X111403177Y-94399640D01*
X111767645Y-95206173D01*
X112070528Y-96031116D01*
X112278545Y-96747960D01*
X112419646Y-97345233D01*
X112527849Y-97908158D01*
X112606324Y-98459720D01*
X112658240Y-99022904D01*
X112686765Y-99620693D01*
X112689554Y-99729066D01*
X112677951Y-100660466D01*
X112600320Y-101576875D01*
X112456684Y-102478167D01*
X112247067Y-103364218D01*
X111971493Y-104234900D01*
X111697585Y-104934344D01*
X111577768Y-105212808D01*
X111475102Y-105443881D01*
X111381795Y-105643147D01*
X111290055Y-105826189D01*
X111192090Y-106008589D01*
X111080108Y-106205931D01*
X110955841Y-106417733D01*
X110447174Y-107212490D01*
X109892061Y-107957984D01*
X109289936Y-108654783D01*
X108640234Y-109303451D01*
X107942388Y-109904554D01*
X107195835Y-110458657D01*
X106417733Y-110955841D01*
X106192327Y-111087975D01*
X105996431Y-111198808D01*
X105814463Y-111296131D01*
X105630839Y-111387736D01*
X105429977Y-111481415D01*
X105196294Y-111584960D01*
X104934344Y-111697585D01*
X104523748Y-111866322D01*
X104145220Y-112007287D01*
X103773532Y-112128833D01*
X103383457Y-112239312D01*
X103031066Y-112327773D01*
X102329129Y-112479472D01*
X101658859Y-112589026D01*
X101000819Y-112658742D01*
X100335568Y-112690925D01*
X99949200Y-112693388D01*
X99730667Y-112691191D01*
X99525350Y-112688181D01*
X99346660Y-112684629D01*
X99208011Y-112680802D01*
X99122815Y-112676971D01*
X99119466Y-112676730D01*
X98197125Y-112574536D01*
X97289362Y-112408193D01*
X96399843Y-112179057D01*
X95532235Y-111888480D01*
X94690202Y-111537819D01*
X93877410Y-111128427D01*
X93097524Y-110661659D01*
X92453446Y-110213528D01*
X91715621Y-109623249D01*
X91030038Y-108990240D01*
X90397655Y-108315900D01*
X89819429Y-107601629D01*
X89296316Y-106848826D01*
X88829273Y-106058889D01*
X88419257Y-105233217D01*
X88067226Y-104373210D01*
X87774135Y-103480267D01*
X87722318Y-103296553D01*
X87609822Y-102862231D01*
X87518579Y-102451246D01*
X87446865Y-102049567D01*
X87392959Y-101643164D01*
X87355137Y-101218005D01*
X87331676Y-100760061D01*
X87320855Y-100255301D01*
X87319656Y-100016933D01*
X87322539Y-99780726D01*
X89592720Y-99780726D01*
X89593162Y-100122649D01*
X89600266Y-100462551D01*
X89613904Y-100783089D01*
X89633945Y-101066921D01*
X89649816Y-101219199D01*
X89785811Y-102061003D01*
X89984858Y-102878562D01*
X90246190Y-103670279D01*
X90569042Y-104434554D01*
X90952647Y-105169789D01*
X91396239Y-105874386D01*
X91899054Y-106546745D01*
X92460323Y-107185267D01*
X92555622Y-107284309D01*
X93128355Y-107826493D01*
X93750017Y-108329686D01*
X94409091Y-108785450D01*
X95094054Y-109185349D01*
X95289419Y-109286415D01*
X95606894Y-109442785D01*
X95885258Y-109571720D01*
X96143378Y-109680808D01*
X96400120Y-109777637D01*
X96674351Y-109869795D01*
X96952000Y-109955103D01*
X97759307Y-110165932D01*
X98551845Y-110312922D01*
X99335796Y-110396645D01*
X100117344Y-110417674D01*
X100902674Y-110376580D01*
X101186586Y-110346797D01*
X101985867Y-110223305D01*
X102752080Y-110044920D01*
X103495922Y-109808441D01*
X104228089Y-109510672D01*
X104641773Y-109313560D01*
X105369803Y-108914974D01*
X106049978Y-108472369D01*
X106685532Y-107982822D01*
X107279698Y-107443412D01*
X107835708Y-106851219D01*
X108356796Y-106203320D01*
X108818739Y-105539240D01*
X108925941Y-105363488D01*
X109051053Y-105141077D01*
X109186307Y-104887450D01*
X109323940Y-104618053D01*
X109456185Y-104348330D01*
X109575277Y-104093724D01*
X109673450Y-103869681D01*
X109730784Y-103725333D01*
X109999020Y-102908091D01*
X110201242Y-102085739D01*
X110337278Y-101260586D01*
X110406956Y-100434943D01*
X110410103Y-99611121D01*
X110346547Y-98791430D01*
X110216115Y-97978181D01*
X110174287Y-97781733D01*
X110030718Y-97200217D01*
X109867274Y-96661834D01*
X109675538Y-96142962D01*
X109447096Y-95619977D01*
X109286415Y-95289419D01*
X108886608Y-94569002D01*
X108430824Y-93884472D01*
X107922338Y-93238903D01*
X107364426Y-92635366D01*
X106760364Y-92076933D01*
X106113426Y-91566676D01*
X105426889Y-91107668D01*
X104704028Y-90702981D01*
X104088854Y-90414846D01*
X103356572Y-90131562D01*
X102620343Y-89909704D01*
X101871597Y-89747534D01*
X101101763Y-89643310D01*
X100302273Y-89595293D01*
X100033866Y-89591496D01*
X99188664Y-89618677D01*
X98371052Y-89706758D01*
X97577730Y-89856739D01*
X96805395Y-90069617D01*
X96050746Y-90346390D01*
X95310480Y-90688057D01*
X94581296Y-91095615D01*
X94151656Y-91369575D01*
X93556741Y-91802760D01*
X92984163Y-92291319D01*
X92440921Y-92827045D01*
X91934016Y-93401731D01*
X91470448Y-94007171D01*
X91057216Y-94635159D01*
X90701320Y-95277487D01*
X90552858Y-95588608D01*
X90290872Y-96206674D01*
X90076552Y-96800759D01*
X89904791Y-97389337D01*
X89770477Y-97990885D01*
X89668504Y-98623876D01*
X89632660Y-98916266D01*
X89612340Y-99160192D01*
X89599070Y-99454126D01*
X89592720Y-99780726D01*
X87322539Y-99780726D01*
X87327103Y-99406819D01*
X87352164Y-98848454D01*
X87397281Y-98327572D01*
X87464896Y-97829909D01*
X87557450Y-97341202D01*
X87677384Y-96847186D01*
X87827140Y-96333596D01*
X88009160Y-95786169D01*
X88076122Y-95597333D01*
X88410563Y-94766531D01*
X88806682Y-93962973D01*
X89263667Y-93187776D01*
X89780703Y-92442062D01*
X90356977Y-91726948D01*
X90991674Y-91043554D01*
X91683981Y-90393000D01*
X92139822Y-90008232D01*
X92506024Y-89728794D01*
X92922191Y-89441536D01*
X93372790Y-89155893D01*
X93842287Y-88881302D01*
X94315150Y-88627198D01*
X94775845Y-88403019D01*
X94801466Y-88391315D01*
X95099965Y-88263858D01*
X95446338Y-88129945D01*
X95821939Y-87995888D01*
X96208123Y-87867996D01*
X96586246Y-87752581D01*
X96937660Y-87655952D01*
X97073706Y-87622274D01*
X97471464Y-87533666D01*
X97851087Y-87462582D01*
X98226574Y-87407583D01*
X98611922Y-87367230D01*
X99021132Y-87340083D01*
X99468200Y-87324704D01*
X99967126Y-87319652D01*
X100016933Y-87319656D01*
D12*
X40030419Y-159969581D03*
X37750000Y-159025000D03*
X35469581Y-159969581D03*
X34525000Y-162250000D03*
X35469581Y-164530419D03*
X37750000Y-165475000D03*
X40030419Y-164530419D03*
X40975000Y-162250000D03*
D13*
X37750000Y-162250000D03*
D12*
X164530419Y-35469581D03*
X162250000Y-34525000D03*
X159969581Y-35469581D03*
X159025000Y-37750000D03*
X159969581Y-40030419D03*
X162250000Y-40975000D03*
X164530419Y-40030419D03*
X165475000Y-37750000D03*
D13*
X162250000Y-37750000D03*
D12*
X164530419Y-159969581D03*
X162250000Y-159025000D03*
X159969581Y-159969581D03*
X159025000Y-162250000D03*
X159969581Y-164530419D03*
X162250000Y-165475000D03*
X164530419Y-164530419D03*
X165475000Y-162250000D03*
D13*
X162250000Y-162250000D03*
D12*
X40030419Y-35469581D03*
X37750000Y-34525000D03*
X35469581Y-35469581D03*
X34525000Y-37750000D03*
X35469581Y-40030419D03*
X37750000Y-40975000D03*
X40030419Y-40030419D03*
X40975000Y-37750000D03*
D13*
X37750000Y-37750000D03*
M02*
