M48
; DRILL file {KiCad (5.1.2)-1} date 8/29/2019 10:53:52 PM
; FORMAT={-:-/ absolute / inch / decimal}
; #@! TF.CreationDate,2019-08-29T22:53:52+09:00
; #@! TF.GenerationSoftware,Kicad,Pcbnew,(5.1.2)-1
; #@! TF.FileFunction,Plated,1,2,PTH
FMAT,2
INCH
T1C0.0236
T2C0.2165
%
G90
G05
T1
X6.2254Y-1.4862
X6.2726Y-1.371
X6.2726Y-1.6014
X6.3878Y-1.3238
X6.3878Y-1.6486
X6.503Y-1.371
X6.503Y-1.6014
X6.5502Y-1.4862
X6.2254Y-6.3878
X6.2726Y-6.2726
X6.2726Y-6.503
X6.3878Y-6.2254
X6.3878Y-6.5502
X6.503Y-6.2726
X6.503Y-6.503
X6.5502Y-6.3878
X1.3238Y-6.3878
X1.371Y-6.2726
X1.371Y-6.503
X1.4862Y-6.2254
X1.4862Y-6.5502
X1.6014Y-6.2726
X1.6014Y-6.503
X1.6486Y-6.3878
X1.3238Y-1.4862
X1.371Y-1.371
X1.371Y-1.6014
X1.4862Y-1.3238
X1.4862Y-1.6486
X1.6014Y-1.371
X1.6014Y-1.6014
X1.6486Y-1.4862
T2
X6.3878Y-1.4862
X6.3878Y-6.3878
X1.4862Y-6.3878
X1.4862Y-1.4862
T0
M30
