G04 #@! TF.GenerationSoftware,KiCad,Pcbnew,(5.1.2)-1*
G04 #@! TF.CreationDate,2019-08-29T22:56:51+09:00*
G04 #@! TF.ProjectId,fan-vent-blocker,66616e2d-7665-46e7-942d-626c6f636b65,rev?*
G04 #@! TF.SameCoordinates,Original*
G04 #@! TF.FileFunction,Legend,Bot*
G04 #@! TF.FilePolarity,Positive*
%FSLAX46Y46*%
G04 Gerber Fmt 4.6, Leading zero omitted, Abs format (unit mm)*
G04 Created by KiCad (PCBNEW (5.1.2)-1) date 2019-08-29 22:56:51*
%MOMM*%
%LPD*%
G04 APERTURE LIST*
%ADD10C,0.010000*%
G04 APERTURE END LIST*
%LPC*%
D10*
G36*
X44809500Y-153920500D02*
G01*
X45214312Y-153920500D01*
X45214312Y-153515688D01*
X44809500Y-153515688D01*
X44809500Y-153920500D01*
X44809500Y-153920500D01*
G37*
X44809500Y-153920500D02*
X45214312Y-153920500D01*
X45214312Y-153515688D01*
X44809500Y-153515688D01*
X44809500Y-153920500D01*
G36*
X44404687Y-154706313D02*
G01*
X44809500Y-154706313D01*
X44809500Y-154325313D01*
X44404687Y-154325313D01*
X44404687Y-154706313D01*
X44404687Y-154706313D01*
G37*
X44404687Y-154706313D02*
X44809500Y-154706313D01*
X44809500Y-154325313D01*
X44404687Y-154325313D01*
X44404687Y-154706313D01*
G36*
X45214312Y-154706313D02*
G01*
X45595312Y-154706313D01*
X45595312Y-154325313D01*
X45214312Y-154325313D01*
X45214312Y-154706313D01*
X45214312Y-154706313D01*
G37*
X45214312Y-154706313D02*
X45595312Y-154706313D01*
X45595312Y-154325313D01*
X45214312Y-154325313D01*
X45214312Y-154706313D01*
G36*
X44023687Y-155515938D02*
G01*
X44404687Y-155515938D01*
X44404687Y-155111125D01*
X44023687Y-155111125D01*
X44023687Y-155515938D01*
X44023687Y-155515938D01*
G37*
X44023687Y-155515938D02*
X44404687Y-155515938D01*
X44404687Y-155111125D01*
X44023687Y-155111125D01*
X44023687Y-155515938D01*
G36*
X44809500Y-155515938D02*
G01*
X45214312Y-155515938D01*
X45214312Y-155111125D01*
X44809500Y-155111125D01*
X44809500Y-155515938D01*
X44809500Y-155515938D01*
G37*
X44809500Y-155515938D02*
X45214312Y-155515938D01*
X45214312Y-155111125D01*
X44809500Y-155111125D01*
X44809500Y-155515938D01*
G36*
X45595312Y-155515938D02*
G01*
X46000125Y-155515938D01*
X46000125Y-155111125D01*
X45595312Y-155111125D01*
X45595312Y-155515938D01*
X45595312Y-155515938D01*
G37*
X45595312Y-155515938D02*
X46000125Y-155515938D01*
X46000125Y-155111125D01*
X45595312Y-155111125D01*
X45595312Y-155515938D01*
G36*
X43618875Y-156301750D02*
G01*
X44023687Y-156301750D01*
X44023687Y-155896938D01*
X43618875Y-155896938D01*
X43618875Y-156301750D01*
X43618875Y-156301750D01*
G37*
X43618875Y-156301750D02*
X44023687Y-156301750D01*
X44023687Y-155896938D01*
X43618875Y-155896938D01*
X43618875Y-156301750D01*
G36*
X46000125Y-156301750D02*
G01*
X46404937Y-156301750D01*
X46404937Y-155896938D01*
X46000125Y-155896938D01*
X46000125Y-156301750D01*
X46000125Y-156301750D01*
G37*
X46000125Y-156301750D02*
X46404937Y-156301750D01*
X46404937Y-155896938D01*
X46000125Y-155896938D01*
X46000125Y-156301750D01*
G36*
X44996031Y-152028045D02*
G01*
X44871913Y-152029415D01*
X44760201Y-152033572D01*
X44657608Y-152040919D01*
X44560844Y-152051860D01*
X44466622Y-152066798D01*
X44371653Y-152086137D01*
X44272649Y-152110281D01*
X44227370Y-152122418D01*
X44018823Y-152187656D01*
X43816735Y-152266992D01*
X43621872Y-152360028D01*
X43435001Y-152466368D01*
X43256886Y-152585616D01*
X43104740Y-152703617D01*
X42947072Y-152844342D01*
X42799735Y-152995787D01*
X42663414Y-153156885D01*
X42538792Y-153326567D01*
X42426553Y-153503766D01*
X42327380Y-153687416D01*
X42241958Y-153876447D01*
X42170970Y-154069793D01*
X42122216Y-154237803D01*
X42089145Y-154377789D01*
X42063785Y-154509725D01*
X42045393Y-154638997D01*
X42033225Y-154770993D01*
X42026539Y-154911100D01*
X42025886Y-154936500D01*
X42028605Y-155154797D01*
X42046800Y-155369580D01*
X42080465Y-155580821D01*
X42129594Y-155788489D01*
X42194181Y-155992555D01*
X42258378Y-156156487D01*
X42286461Y-156221752D01*
X42310523Y-156275910D01*
X42332392Y-156322613D01*
X42353893Y-156365513D01*
X42376854Y-156408263D01*
X42403100Y-156454515D01*
X42432225Y-156504156D01*
X42551444Y-156690427D01*
X42681548Y-156865153D01*
X42822671Y-157028465D01*
X42974945Y-157180496D01*
X43138503Y-157321380D01*
X43313476Y-157451248D01*
X43495844Y-157567775D01*
X43548673Y-157598744D01*
X43594586Y-157624721D01*
X43637235Y-157647531D01*
X43680272Y-157669001D01*
X43727349Y-157690957D01*
X43782119Y-157715225D01*
X43843513Y-157741622D01*
X43939746Y-157781169D01*
X44028464Y-157814208D01*
X44115578Y-157842695D01*
X44207002Y-157868589D01*
X44289594Y-157889322D01*
X44454110Y-157924876D01*
X44611205Y-157950553D01*
X44765433Y-157966893D01*
X44921351Y-157974436D01*
X45011906Y-157975013D01*
X45063125Y-157974498D01*
X45111246Y-157973793D01*
X45153126Y-157972960D01*
X45185622Y-157972063D01*
X45205590Y-157971165D01*
X45206375Y-157971109D01*
X45422549Y-157947157D01*
X45635306Y-157908170D01*
X45843787Y-157854467D01*
X46047132Y-157786363D01*
X46244484Y-157704176D01*
X46434982Y-157608225D01*
X46617768Y-157498826D01*
X46768724Y-157393796D01*
X46941651Y-157255449D01*
X47102335Y-157107088D01*
X47250549Y-156949039D01*
X47386071Y-156781632D01*
X47508676Y-156605194D01*
X47618139Y-156420052D01*
X47714237Y-156226535D01*
X47796744Y-156024971D01*
X47865437Y-155815688D01*
X47877582Y-155772630D01*
X47903948Y-155670835D01*
X47925333Y-155574511D01*
X47942141Y-155480367D01*
X47954775Y-155385117D01*
X47963640Y-155285470D01*
X47969138Y-155178140D01*
X47971674Y-155059836D01*
X47971955Y-155003969D01*
X47971280Y-154948608D01*
X47439206Y-154948608D01*
X47439103Y-155028746D01*
X47437437Y-155108410D01*
X47434241Y-155183537D01*
X47429544Y-155250060D01*
X47425824Y-155285750D01*
X47393950Y-155483048D01*
X47347299Y-155674663D01*
X47286049Y-155860222D01*
X47210381Y-156039349D01*
X47120473Y-156211669D01*
X47016506Y-156376809D01*
X46898659Y-156534393D01*
X46767112Y-156684047D01*
X46744776Y-156707260D01*
X46610542Y-156834334D01*
X46464840Y-156952270D01*
X46310369Y-157059090D01*
X46149831Y-157152816D01*
X46104042Y-157176504D01*
X46029634Y-157213153D01*
X45964393Y-157243372D01*
X45903896Y-157268940D01*
X45843722Y-157291634D01*
X45779449Y-157313233D01*
X45714375Y-157333227D01*
X45525162Y-157382640D01*
X45339411Y-157417091D01*
X45155673Y-157436714D01*
X44972497Y-157441642D01*
X44788436Y-157432011D01*
X44721894Y-157425031D01*
X44534562Y-157396087D01*
X44354981Y-157354278D01*
X44180643Y-157298854D01*
X44009041Y-157229064D01*
X43912084Y-157182866D01*
X43741452Y-157089447D01*
X43582036Y-156985712D01*
X43433078Y-156870974D01*
X43293821Y-156744550D01*
X43163506Y-156605754D01*
X43041376Y-156453903D01*
X42933108Y-156298259D01*
X42907982Y-156257068D01*
X42878659Y-156204940D01*
X42846959Y-156145496D01*
X42814701Y-156082356D01*
X42783707Y-156019140D01*
X42755794Y-155959467D01*
X42732785Y-155906957D01*
X42719347Y-155873125D01*
X42656480Y-155681584D01*
X42609084Y-155488845D01*
X42577200Y-155295450D01*
X42560870Y-155101940D01*
X42560132Y-154908857D01*
X42575028Y-154716742D01*
X42605598Y-154526136D01*
X42615401Y-154480094D01*
X42649050Y-154343801D01*
X42687358Y-154217618D01*
X42732296Y-154096007D01*
X42785837Y-153973432D01*
X42823496Y-153895958D01*
X42917201Y-153727110D01*
X43024026Y-153566673D01*
X43143202Y-153415368D01*
X43273963Y-153273914D01*
X43415540Y-153143031D01*
X43567166Y-153023440D01*
X43728073Y-152915860D01*
X43897493Y-152821011D01*
X44041675Y-152753480D01*
X44213303Y-152687085D01*
X44385857Y-152635087D01*
X44561344Y-152597078D01*
X44741774Y-152572651D01*
X44929155Y-152561397D01*
X44992062Y-152560507D01*
X45190157Y-152566877D01*
X45381785Y-152587522D01*
X45567719Y-152622673D01*
X45748735Y-152672567D01*
X45925606Y-152737435D01*
X46099106Y-152817513D01*
X46270009Y-152913035D01*
X46370706Y-152977244D01*
X46510139Y-153078772D01*
X46644337Y-153193278D01*
X46771659Y-153318839D01*
X46890465Y-153453531D01*
X46999114Y-153595431D01*
X47095965Y-153742615D01*
X47179378Y-153893161D01*
X47214174Y-153966080D01*
X47275577Y-154110939D01*
X47325808Y-154250178D01*
X47366065Y-154388126D01*
X47397544Y-154529114D01*
X47421444Y-154677471D01*
X47429845Y-154746000D01*
X47434608Y-154803170D01*
X47437718Y-154872061D01*
X47439206Y-154948608D01*
X47971280Y-154948608D01*
X47970210Y-154860973D01*
X47964336Y-154730106D01*
X47953762Y-154608025D01*
X47937915Y-154491385D01*
X47916223Y-154376844D01*
X47888113Y-154261059D01*
X47853014Y-154140687D01*
X47810353Y-154012384D01*
X47794659Y-153968125D01*
X47716274Y-153773406D01*
X47623434Y-153585072D01*
X47516328Y-153403385D01*
X47395148Y-153228608D01*
X47260083Y-153061003D01*
X47111326Y-152900833D01*
X46949067Y-152748360D01*
X46842229Y-152658179D01*
X46756400Y-152592686D01*
X46658861Y-152525360D01*
X46553252Y-152458412D01*
X46443214Y-152394055D01*
X46332387Y-152334500D01*
X46224411Y-152281958D01*
X46218406Y-152279215D01*
X46148446Y-152249342D01*
X46067265Y-152217956D01*
X45979233Y-152186536D01*
X45888721Y-152156562D01*
X45800099Y-152129511D01*
X45717736Y-152106864D01*
X45685850Y-152098971D01*
X45592625Y-152078203D01*
X45503651Y-152061543D01*
X45415647Y-152048652D01*
X45325331Y-152039195D01*
X45229422Y-152032832D01*
X45124640Y-152029228D01*
X45007705Y-152028044D01*
X44996031Y-152028045D01*
X44996031Y-152028045D01*
G37*
X44996031Y-152028045D02*
X44871913Y-152029415D01*
X44760201Y-152033572D01*
X44657608Y-152040919D01*
X44560844Y-152051860D01*
X44466622Y-152066798D01*
X44371653Y-152086137D01*
X44272649Y-152110281D01*
X44227370Y-152122418D01*
X44018823Y-152187656D01*
X43816735Y-152266992D01*
X43621872Y-152360028D01*
X43435001Y-152466368D01*
X43256886Y-152585616D01*
X43104740Y-152703617D01*
X42947072Y-152844342D01*
X42799735Y-152995787D01*
X42663414Y-153156885D01*
X42538792Y-153326567D01*
X42426553Y-153503766D01*
X42327380Y-153687416D01*
X42241958Y-153876447D01*
X42170970Y-154069793D01*
X42122216Y-154237803D01*
X42089145Y-154377789D01*
X42063785Y-154509725D01*
X42045393Y-154638997D01*
X42033225Y-154770993D01*
X42026539Y-154911100D01*
X42025886Y-154936500D01*
X42028605Y-155154797D01*
X42046800Y-155369580D01*
X42080465Y-155580821D01*
X42129594Y-155788489D01*
X42194181Y-155992555D01*
X42258378Y-156156487D01*
X42286461Y-156221752D01*
X42310523Y-156275910D01*
X42332392Y-156322613D01*
X42353893Y-156365513D01*
X42376854Y-156408263D01*
X42403100Y-156454515D01*
X42432225Y-156504156D01*
X42551444Y-156690427D01*
X42681548Y-156865153D01*
X42822671Y-157028465D01*
X42974945Y-157180496D01*
X43138503Y-157321380D01*
X43313476Y-157451248D01*
X43495844Y-157567775D01*
X43548673Y-157598744D01*
X43594586Y-157624721D01*
X43637235Y-157647531D01*
X43680272Y-157669001D01*
X43727349Y-157690957D01*
X43782119Y-157715225D01*
X43843513Y-157741622D01*
X43939746Y-157781169D01*
X44028464Y-157814208D01*
X44115578Y-157842695D01*
X44207002Y-157868589D01*
X44289594Y-157889322D01*
X44454110Y-157924876D01*
X44611205Y-157950553D01*
X44765433Y-157966893D01*
X44921351Y-157974436D01*
X45011906Y-157975013D01*
X45063125Y-157974498D01*
X45111246Y-157973793D01*
X45153126Y-157972960D01*
X45185622Y-157972063D01*
X45205590Y-157971165D01*
X45206375Y-157971109D01*
X45422549Y-157947157D01*
X45635306Y-157908170D01*
X45843787Y-157854467D01*
X46047132Y-157786363D01*
X46244484Y-157704176D01*
X46434982Y-157608225D01*
X46617768Y-157498826D01*
X46768724Y-157393796D01*
X46941651Y-157255449D01*
X47102335Y-157107088D01*
X47250549Y-156949039D01*
X47386071Y-156781632D01*
X47508676Y-156605194D01*
X47618139Y-156420052D01*
X47714237Y-156226535D01*
X47796744Y-156024971D01*
X47865437Y-155815688D01*
X47877582Y-155772630D01*
X47903948Y-155670835D01*
X47925333Y-155574511D01*
X47942141Y-155480367D01*
X47954775Y-155385117D01*
X47963640Y-155285470D01*
X47969138Y-155178140D01*
X47971674Y-155059836D01*
X47971955Y-155003969D01*
X47971280Y-154948608D01*
X47439206Y-154948608D01*
X47439103Y-155028746D01*
X47437437Y-155108410D01*
X47434241Y-155183537D01*
X47429544Y-155250060D01*
X47425824Y-155285750D01*
X47393950Y-155483048D01*
X47347299Y-155674663D01*
X47286049Y-155860222D01*
X47210381Y-156039349D01*
X47120473Y-156211669D01*
X47016506Y-156376809D01*
X46898659Y-156534393D01*
X46767112Y-156684047D01*
X46744776Y-156707260D01*
X46610542Y-156834334D01*
X46464840Y-156952270D01*
X46310369Y-157059090D01*
X46149831Y-157152816D01*
X46104042Y-157176504D01*
X46029634Y-157213153D01*
X45964393Y-157243372D01*
X45903896Y-157268940D01*
X45843722Y-157291634D01*
X45779449Y-157313233D01*
X45714375Y-157333227D01*
X45525162Y-157382640D01*
X45339411Y-157417091D01*
X45155673Y-157436714D01*
X44972497Y-157441642D01*
X44788436Y-157432011D01*
X44721894Y-157425031D01*
X44534562Y-157396087D01*
X44354981Y-157354278D01*
X44180643Y-157298854D01*
X44009041Y-157229064D01*
X43912084Y-157182866D01*
X43741452Y-157089447D01*
X43582036Y-156985712D01*
X43433078Y-156870974D01*
X43293821Y-156744550D01*
X43163506Y-156605754D01*
X43041376Y-156453903D01*
X42933108Y-156298259D01*
X42907982Y-156257068D01*
X42878659Y-156204940D01*
X42846959Y-156145496D01*
X42814701Y-156082356D01*
X42783707Y-156019140D01*
X42755794Y-155959467D01*
X42732785Y-155906957D01*
X42719347Y-155873125D01*
X42656480Y-155681584D01*
X42609084Y-155488845D01*
X42577200Y-155295450D01*
X42560870Y-155101940D01*
X42560132Y-154908857D01*
X42575028Y-154716742D01*
X42605598Y-154526136D01*
X42615401Y-154480094D01*
X42649050Y-154343801D01*
X42687358Y-154217618D01*
X42732296Y-154096007D01*
X42785837Y-153973432D01*
X42823496Y-153895958D01*
X42917201Y-153727110D01*
X43024026Y-153566673D01*
X43143202Y-153415368D01*
X43273963Y-153273914D01*
X43415540Y-153143031D01*
X43567166Y-153023440D01*
X43728073Y-152915860D01*
X43897493Y-152821011D01*
X44041675Y-152753480D01*
X44213303Y-152687085D01*
X44385857Y-152635087D01*
X44561344Y-152597078D01*
X44741774Y-152572651D01*
X44929155Y-152561397D01*
X44992062Y-152560507D01*
X45190157Y-152566877D01*
X45381785Y-152587522D01*
X45567719Y-152622673D01*
X45748735Y-152672567D01*
X45925606Y-152737435D01*
X46099106Y-152817513D01*
X46270009Y-152913035D01*
X46370706Y-152977244D01*
X46510139Y-153078772D01*
X46644337Y-153193278D01*
X46771659Y-153318839D01*
X46890465Y-153453531D01*
X46999114Y-153595431D01*
X47095965Y-153742615D01*
X47179378Y-153893161D01*
X47214174Y-153966080D01*
X47275577Y-154110939D01*
X47325808Y-154250178D01*
X47366065Y-154388126D01*
X47397544Y-154529114D01*
X47421444Y-154677471D01*
X47429845Y-154746000D01*
X47434608Y-154803170D01*
X47437718Y-154872061D01*
X47439206Y-154948608D01*
X47971280Y-154948608D01*
X47970210Y-154860973D01*
X47964336Y-154730106D01*
X47953762Y-154608025D01*
X47937915Y-154491385D01*
X47916223Y-154376844D01*
X47888113Y-154261059D01*
X47853014Y-154140687D01*
X47810353Y-154012384D01*
X47794659Y-153968125D01*
X47716274Y-153773406D01*
X47623434Y-153585072D01*
X47516328Y-153403385D01*
X47395148Y-153228608D01*
X47260083Y-153061003D01*
X47111326Y-152900833D01*
X46949067Y-152748360D01*
X46842229Y-152658179D01*
X46756400Y-152592686D01*
X46658861Y-152525360D01*
X46553252Y-152458412D01*
X46443214Y-152394055D01*
X46332387Y-152334500D01*
X46224411Y-152281958D01*
X46218406Y-152279215D01*
X46148446Y-152249342D01*
X46067265Y-152217956D01*
X45979233Y-152186536D01*
X45888721Y-152156562D01*
X45800099Y-152129511D01*
X45717736Y-152106864D01*
X45685850Y-152098971D01*
X45592625Y-152078203D01*
X45503651Y-152061543D01*
X45415647Y-152048652D01*
X45325331Y-152039195D01*
X45229422Y-152032832D01*
X45124640Y-152029228D01*
X45007705Y-152028044D01*
X44996031Y-152028045D01*
M02*
