G04 #@! TF.GenerationSoftware,KiCad,Pcbnew,(5.1.4)-1*
G04 #@! TF.CreationDate,2020-12-31T01:27:08+09:00*
G04 #@! TF.ProjectId,fan-vent-blocker,66616e2d-7665-46e7-942d-626c6f636b65,rev?*
G04 #@! TF.SameCoordinates,Original*
G04 #@! TF.FileFunction,Copper,L2,Bot*
G04 #@! TF.FilePolarity,Positive*
%FSLAX46Y46*%
G04 Gerber Fmt 4.6, Leading zero omitted, Abs format (unit mm)*
G04 Created by KiCad (PCBNEW (5.1.4)-1) date 2020-12-31 01:27:08*
%MOMM*%
%LPD*%
G04 APERTURE LIST*
%ADD10C,0.900000*%
%ADD11C,8.600000*%
%ADD12C,0.254000*%
G04 APERTURE END LIST*
D10*
X-50219581Y-50219581D03*
X-52500000Y-49275000D03*
X-54780419Y-50219581D03*
X-55725000Y-52500000D03*
X-54780419Y-54780419D03*
X-52500000Y-55725000D03*
X-50219581Y-54780419D03*
X-49275000Y-52500000D03*
D11*
X-52500000Y-52500000D03*
D10*
X54780419Y54780419D03*
X52500000Y55725000D03*
X50219581Y54780419D03*
X49275000Y52500000D03*
X50219581Y50219581D03*
X52500000Y49275000D03*
X54780419Y50219581D03*
X55725000Y52500000D03*
D11*
X52500000Y52500000D03*
D10*
X54780419Y-50219581D03*
X52500000Y-49275000D03*
X50219581Y-50219581D03*
X49275000Y-52500000D03*
X50219581Y-54780419D03*
X52500000Y-55725000D03*
X54780419Y-54780419D03*
X55725000Y-52500000D03*
D11*
X52500000Y-52500000D03*
D10*
X-50219581Y54780419D03*
X-52500000Y55725000D03*
X-54780419Y54780419D03*
X-55725000Y52500000D03*
X-54780419Y50219581D03*
X-52500000Y49275000D03*
X-50219581Y50219581D03*
X-49275000Y52500000D03*
D11*
X-52500000Y52500000D03*
D12*
G36*
X55768083Y59268827D02*
G01*
X56511891Y59065344D01*
X57207905Y58733362D01*
X57834130Y58283374D01*
X58370777Y57729597D01*
X58800871Y57089549D01*
X59110829Y56383447D01*
X59292065Y55628543D01*
X59340000Y54975793D01*
X59340001Y-54970597D01*
X59268827Y-55768083D01*
X59065344Y-56511890D01*
X58733363Y-57207904D01*
X58283374Y-57834130D01*
X57729597Y-58370777D01*
X57089549Y-58800871D01*
X56383447Y-59110829D01*
X55628543Y-59292065D01*
X54975793Y-59340000D01*
X-54970608Y-59340000D01*
X-55768083Y-59268827D01*
X-56511890Y-59065344D01*
X-57207904Y-58733363D01*
X-57834130Y-58283374D01*
X-58370777Y-57729597D01*
X-58800871Y-57089549D01*
X-59110829Y-56383447D01*
X-59292065Y-55628543D01*
X-59340000Y-54975793D01*
X-59340000Y54970608D01*
X-59268827Y55768083D01*
X-59065344Y56511891D01*
X-58733362Y57207905D01*
X-58283374Y57834130D01*
X-57729597Y58370777D01*
X-57089549Y58800871D01*
X-56383447Y59110829D01*
X-55628543Y59292065D01*
X-54975793Y59340000D01*
X54970608Y59340000D01*
X55768083Y59268827D01*
X55768083Y59268827D01*
G37*
X55768083Y59268827D02*
X56511891Y59065344D01*
X57207905Y58733362D01*
X57834130Y58283374D01*
X58370777Y57729597D01*
X58800871Y57089549D01*
X59110829Y56383447D01*
X59292065Y55628543D01*
X59340000Y54975793D01*
X59340001Y-54970597D01*
X59268827Y-55768083D01*
X59065344Y-56511890D01*
X58733363Y-57207904D01*
X58283374Y-57834130D01*
X57729597Y-58370777D01*
X57089549Y-58800871D01*
X56383447Y-59110829D01*
X55628543Y-59292065D01*
X54975793Y-59340000D01*
X-54970608Y-59340000D01*
X-55768083Y-59268827D01*
X-56511890Y-59065344D01*
X-57207904Y-58733363D01*
X-57834130Y-58283374D01*
X-58370777Y-57729597D01*
X-58800871Y-57089549D01*
X-59110829Y-56383447D01*
X-59292065Y-55628543D01*
X-59340000Y-54975793D01*
X-59340000Y54970608D01*
X-59268827Y55768083D01*
X-59065344Y56511891D01*
X-58733362Y57207905D01*
X-58283374Y57834130D01*
X-57729597Y58370777D01*
X-57089549Y58800871D01*
X-56383447Y59110829D01*
X-55628543Y59292065D01*
X-54975793Y59340000D01*
X54970608Y59340000D01*
X55768083Y59268827D01*
M02*
