G04 #@! TF.GenerationSoftware,KiCad,Pcbnew,(5.1.2)-1*
G04 #@! TF.CreationDate,2019-09-18T10:36:50+09:00*
G04 #@! TF.ProjectId,fan-vent-blocker,66616e2d-7665-46e7-942d-626c6f636b65,rev?*
G04 #@! TF.SameCoordinates,Original*
G04 #@! TF.FileFunction,Soldermask,Bot*
G04 #@! TF.FilePolarity,Negative*
%FSLAX46Y46*%
G04 Gerber Fmt 4.6, Leading zero omitted, Abs format (unit mm)*
G04 Created by KiCad (PCBNEW (5.1.2)-1) date 2019-09-18 10:36:50*
%MOMM*%
%LPD*%
G04 APERTURE LIST*
%ADD10C,0.010000*%
G04 APERTURE END LIST*
D10*
G36*
X-44190500Y-42920500D02*
G01*
X-43785688Y-42920500D01*
X-43785688Y-42515688D01*
X-44190500Y-42515688D01*
X-44190500Y-42920500D01*
X-44190500Y-42920500D01*
G37*
X-44190500Y-42920500D02*
X-43785688Y-42920500D01*
X-43785688Y-42515688D01*
X-44190500Y-42515688D01*
X-44190500Y-42920500D01*
G36*
X-44595313Y-43706313D02*
G01*
X-44190500Y-43706313D01*
X-44190500Y-43325313D01*
X-44595313Y-43325313D01*
X-44595313Y-43706313D01*
X-44595313Y-43706313D01*
G37*
X-44595313Y-43706313D02*
X-44190500Y-43706313D01*
X-44190500Y-43325313D01*
X-44595313Y-43325313D01*
X-44595313Y-43706313D01*
G36*
X-43785688Y-43706313D02*
G01*
X-43404688Y-43706313D01*
X-43404688Y-43325313D01*
X-43785688Y-43325313D01*
X-43785688Y-43706313D01*
X-43785688Y-43706313D01*
G37*
X-43785688Y-43706313D02*
X-43404688Y-43706313D01*
X-43404688Y-43325313D01*
X-43785688Y-43325313D01*
X-43785688Y-43706313D01*
G36*
X-44976313Y-44515938D02*
G01*
X-44595313Y-44515938D01*
X-44595313Y-44111125D01*
X-44976313Y-44111125D01*
X-44976313Y-44515938D01*
X-44976313Y-44515938D01*
G37*
X-44976313Y-44515938D02*
X-44595313Y-44515938D01*
X-44595313Y-44111125D01*
X-44976313Y-44111125D01*
X-44976313Y-44515938D01*
G36*
X-44190500Y-44515938D02*
G01*
X-43785688Y-44515938D01*
X-43785688Y-44111125D01*
X-44190500Y-44111125D01*
X-44190500Y-44515938D01*
X-44190500Y-44515938D01*
G37*
X-44190500Y-44515938D02*
X-43785688Y-44515938D01*
X-43785688Y-44111125D01*
X-44190500Y-44111125D01*
X-44190500Y-44515938D01*
G36*
X-43404688Y-44515938D02*
G01*
X-42999875Y-44515938D01*
X-42999875Y-44111125D01*
X-43404688Y-44111125D01*
X-43404688Y-44515938D01*
X-43404688Y-44515938D01*
G37*
X-43404688Y-44515938D02*
X-42999875Y-44515938D01*
X-42999875Y-44111125D01*
X-43404688Y-44111125D01*
X-43404688Y-44515938D01*
G36*
X-45381125Y-45301750D02*
G01*
X-44976313Y-45301750D01*
X-44976313Y-44896938D01*
X-45381125Y-44896938D01*
X-45381125Y-45301750D01*
X-45381125Y-45301750D01*
G37*
X-45381125Y-45301750D02*
X-44976313Y-45301750D01*
X-44976313Y-44896938D01*
X-45381125Y-44896938D01*
X-45381125Y-45301750D01*
G36*
X-42999875Y-45301750D02*
G01*
X-42595063Y-45301750D01*
X-42595063Y-44896938D01*
X-42999875Y-44896938D01*
X-42999875Y-45301750D01*
X-42999875Y-45301750D01*
G37*
X-42999875Y-45301750D02*
X-42595063Y-45301750D01*
X-42595063Y-44896938D01*
X-42999875Y-44896938D01*
X-42999875Y-45301750D01*
G36*
X-44003969Y-41028045D02*
G01*
X-44128087Y-41029415D01*
X-44239799Y-41033572D01*
X-44342392Y-41040919D01*
X-44439156Y-41051860D01*
X-44533378Y-41066798D01*
X-44628347Y-41086137D01*
X-44727351Y-41110281D01*
X-44772630Y-41122418D01*
X-44981177Y-41187656D01*
X-45183265Y-41266992D01*
X-45378128Y-41360028D01*
X-45564999Y-41466368D01*
X-45743114Y-41585616D01*
X-45895260Y-41703617D01*
X-46052928Y-41844342D01*
X-46200265Y-41995787D01*
X-46336586Y-42156885D01*
X-46461208Y-42326567D01*
X-46573447Y-42503766D01*
X-46672620Y-42687416D01*
X-46758042Y-42876447D01*
X-46829030Y-43069793D01*
X-46877784Y-43237803D01*
X-46910855Y-43377789D01*
X-46936215Y-43509725D01*
X-46954607Y-43638997D01*
X-46966775Y-43770993D01*
X-46973461Y-43911100D01*
X-46974114Y-43936500D01*
X-46971395Y-44154797D01*
X-46953200Y-44369580D01*
X-46919535Y-44580821D01*
X-46870406Y-44788489D01*
X-46805819Y-44992555D01*
X-46741622Y-45156487D01*
X-46713539Y-45221752D01*
X-46689477Y-45275910D01*
X-46667608Y-45322613D01*
X-46646107Y-45365513D01*
X-46623146Y-45408263D01*
X-46596900Y-45454515D01*
X-46567775Y-45504156D01*
X-46448556Y-45690427D01*
X-46318452Y-45865153D01*
X-46177329Y-46028465D01*
X-46025055Y-46180496D01*
X-45861497Y-46321380D01*
X-45686524Y-46451248D01*
X-45504156Y-46567775D01*
X-45451327Y-46598744D01*
X-45405414Y-46624721D01*
X-45362765Y-46647531D01*
X-45319728Y-46669001D01*
X-45272651Y-46690957D01*
X-45217881Y-46715225D01*
X-45156487Y-46741622D01*
X-45060254Y-46781169D01*
X-44971536Y-46814208D01*
X-44884422Y-46842695D01*
X-44792998Y-46868589D01*
X-44710406Y-46889322D01*
X-44545890Y-46924876D01*
X-44388795Y-46950553D01*
X-44234567Y-46966893D01*
X-44078649Y-46974436D01*
X-43988094Y-46975013D01*
X-43936875Y-46974498D01*
X-43888754Y-46973793D01*
X-43846874Y-46972960D01*
X-43814378Y-46972063D01*
X-43794410Y-46971165D01*
X-43793625Y-46971109D01*
X-43577451Y-46947157D01*
X-43364694Y-46908170D01*
X-43156213Y-46854467D01*
X-42952868Y-46786363D01*
X-42755516Y-46704176D01*
X-42565018Y-46608225D01*
X-42382232Y-46498826D01*
X-42231276Y-46393796D01*
X-42058349Y-46255449D01*
X-41897665Y-46107088D01*
X-41749451Y-45949039D01*
X-41613929Y-45781632D01*
X-41491324Y-45605194D01*
X-41381861Y-45420052D01*
X-41285763Y-45226535D01*
X-41203256Y-45024971D01*
X-41134563Y-44815688D01*
X-41122418Y-44772630D01*
X-41096052Y-44670835D01*
X-41074667Y-44574511D01*
X-41057859Y-44480367D01*
X-41045225Y-44385117D01*
X-41036360Y-44285470D01*
X-41030862Y-44178140D01*
X-41028326Y-44059836D01*
X-41028045Y-44003969D01*
X-41028720Y-43948608D01*
X-41560794Y-43948608D01*
X-41560897Y-44028746D01*
X-41562563Y-44108410D01*
X-41565759Y-44183537D01*
X-41570456Y-44250060D01*
X-41574176Y-44285750D01*
X-41606050Y-44483048D01*
X-41652701Y-44674663D01*
X-41713951Y-44860222D01*
X-41789619Y-45039349D01*
X-41879527Y-45211669D01*
X-41983494Y-45376809D01*
X-42101341Y-45534393D01*
X-42232888Y-45684047D01*
X-42255224Y-45707260D01*
X-42389458Y-45834334D01*
X-42535160Y-45952270D01*
X-42689631Y-46059090D01*
X-42850169Y-46152816D01*
X-42895958Y-46176504D01*
X-42970366Y-46213153D01*
X-43035607Y-46243372D01*
X-43096104Y-46268940D01*
X-43156278Y-46291634D01*
X-43220551Y-46313233D01*
X-43285625Y-46333227D01*
X-43474838Y-46382640D01*
X-43660589Y-46417091D01*
X-43844327Y-46436714D01*
X-44027503Y-46441642D01*
X-44211564Y-46432011D01*
X-44278106Y-46425031D01*
X-44465438Y-46396087D01*
X-44645019Y-46354278D01*
X-44819357Y-46298854D01*
X-44990959Y-46229064D01*
X-45087916Y-46182866D01*
X-45258548Y-46089447D01*
X-45417964Y-45985712D01*
X-45566922Y-45870974D01*
X-45706179Y-45744550D01*
X-45836494Y-45605754D01*
X-45958624Y-45453903D01*
X-46066892Y-45298259D01*
X-46092018Y-45257068D01*
X-46121341Y-45204940D01*
X-46153041Y-45145496D01*
X-46185299Y-45082356D01*
X-46216293Y-45019140D01*
X-46244206Y-44959467D01*
X-46267215Y-44906957D01*
X-46280653Y-44873125D01*
X-46343520Y-44681584D01*
X-46390916Y-44488845D01*
X-46422800Y-44295450D01*
X-46439130Y-44101940D01*
X-46439868Y-43908857D01*
X-46424972Y-43716742D01*
X-46394402Y-43526136D01*
X-46384599Y-43480094D01*
X-46350950Y-43343801D01*
X-46312642Y-43217618D01*
X-46267704Y-43096007D01*
X-46214163Y-42973432D01*
X-46176504Y-42895958D01*
X-46082799Y-42727110D01*
X-45975974Y-42566673D01*
X-45856798Y-42415368D01*
X-45726037Y-42273914D01*
X-45584460Y-42143031D01*
X-45432834Y-42023440D01*
X-45271927Y-41915860D01*
X-45102507Y-41821011D01*
X-44958325Y-41753480D01*
X-44786697Y-41687085D01*
X-44614143Y-41635087D01*
X-44438656Y-41597078D01*
X-44258226Y-41572651D01*
X-44070845Y-41561397D01*
X-44007938Y-41560507D01*
X-43809843Y-41566877D01*
X-43618215Y-41587522D01*
X-43432281Y-41622673D01*
X-43251265Y-41672567D01*
X-43074394Y-41737435D01*
X-42900894Y-41817513D01*
X-42729991Y-41913035D01*
X-42629294Y-41977244D01*
X-42489861Y-42078772D01*
X-42355663Y-42193278D01*
X-42228341Y-42318839D01*
X-42109535Y-42453531D01*
X-42000886Y-42595431D01*
X-41904035Y-42742615D01*
X-41820622Y-42893161D01*
X-41785826Y-42966080D01*
X-41724423Y-43110939D01*
X-41674192Y-43250178D01*
X-41633935Y-43388126D01*
X-41602456Y-43529114D01*
X-41578556Y-43677471D01*
X-41570155Y-43746000D01*
X-41565392Y-43803170D01*
X-41562282Y-43872061D01*
X-41560794Y-43948608D01*
X-41028720Y-43948608D01*
X-41029790Y-43860973D01*
X-41035664Y-43730106D01*
X-41046238Y-43608025D01*
X-41062085Y-43491385D01*
X-41083777Y-43376844D01*
X-41111887Y-43261059D01*
X-41146986Y-43140687D01*
X-41189647Y-43012384D01*
X-41205341Y-42968125D01*
X-41283726Y-42773406D01*
X-41376566Y-42585072D01*
X-41483672Y-42403385D01*
X-41604852Y-42228608D01*
X-41739917Y-42061003D01*
X-41888674Y-41900833D01*
X-42050933Y-41748360D01*
X-42157771Y-41658179D01*
X-42243600Y-41592686D01*
X-42341139Y-41525360D01*
X-42446748Y-41458412D01*
X-42556786Y-41394055D01*
X-42667613Y-41334500D01*
X-42775589Y-41281958D01*
X-42781594Y-41279215D01*
X-42851554Y-41249342D01*
X-42932735Y-41217956D01*
X-43020767Y-41186536D01*
X-43111279Y-41156562D01*
X-43199901Y-41129511D01*
X-43282264Y-41106864D01*
X-43314150Y-41098971D01*
X-43407375Y-41078203D01*
X-43496349Y-41061543D01*
X-43584353Y-41048652D01*
X-43674669Y-41039195D01*
X-43770578Y-41032832D01*
X-43875360Y-41029228D01*
X-43992295Y-41028044D01*
X-44003969Y-41028045D01*
X-44003969Y-41028045D01*
G37*
X-44003969Y-41028045D02*
X-44128087Y-41029415D01*
X-44239799Y-41033572D01*
X-44342392Y-41040919D01*
X-44439156Y-41051860D01*
X-44533378Y-41066798D01*
X-44628347Y-41086137D01*
X-44727351Y-41110281D01*
X-44772630Y-41122418D01*
X-44981177Y-41187656D01*
X-45183265Y-41266992D01*
X-45378128Y-41360028D01*
X-45564999Y-41466368D01*
X-45743114Y-41585616D01*
X-45895260Y-41703617D01*
X-46052928Y-41844342D01*
X-46200265Y-41995787D01*
X-46336586Y-42156885D01*
X-46461208Y-42326567D01*
X-46573447Y-42503766D01*
X-46672620Y-42687416D01*
X-46758042Y-42876447D01*
X-46829030Y-43069793D01*
X-46877784Y-43237803D01*
X-46910855Y-43377789D01*
X-46936215Y-43509725D01*
X-46954607Y-43638997D01*
X-46966775Y-43770993D01*
X-46973461Y-43911100D01*
X-46974114Y-43936500D01*
X-46971395Y-44154797D01*
X-46953200Y-44369580D01*
X-46919535Y-44580821D01*
X-46870406Y-44788489D01*
X-46805819Y-44992555D01*
X-46741622Y-45156487D01*
X-46713539Y-45221752D01*
X-46689477Y-45275910D01*
X-46667608Y-45322613D01*
X-46646107Y-45365513D01*
X-46623146Y-45408263D01*
X-46596900Y-45454515D01*
X-46567775Y-45504156D01*
X-46448556Y-45690427D01*
X-46318452Y-45865153D01*
X-46177329Y-46028465D01*
X-46025055Y-46180496D01*
X-45861497Y-46321380D01*
X-45686524Y-46451248D01*
X-45504156Y-46567775D01*
X-45451327Y-46598744D01*
X-45405414Y-46624721D01*
X-45362765Y-46647531D01*
X-45319728Y-46669001D01*
X-45272651Y-46690957D01*
X-45217881Y-46715225D01*
X-45156487Y-46741622D01*
X-45060254Y-46781169D01*
X-44971536Y-46814208D01*
X-44884422Y-46842695D01*
X-44792998Y-46868589D01*
X-44710406Y-46889322D01*
X-44545890Y-46924876D01*
X-44388795Y-46950553D01*
X-44234567Y-46966893D01*
X-44078649Y-46974436D01*
X-43988094Y-46975013D01*
X-43936875Y-46974498D01*
X-43888754Y-46973793D01*
X-43846874Y-46972960D01*
X-43814378Y-46972063D01*
X-43794410Y-46971165D01*
X-43793625Y-46971109D01*
X-43577451Y-46947157D01*
X-43364694Y-46908170D01*
X-43156213Y-46854467D01*
X-42952868Y-46786363D01*
X-42755516Y-46704176D01*
X-42565018Y-46608225D01*
X-42382232Y-46498826D01*
X-42231276Y-46393796D01*
X-42058349Y-46255449D01*
X-41897665Y-46107088D01*
X-41749451Y-45949039D01*
X-41613929Y-45781632D01*
X-41491324Y-45605194D01*
X-41381861Y-45420052D01*
X-41285763Y-45226535D01*
X-41203256Y-45024971D01*
X-41134563Y-44815688D01*
X-41122418Y-44772630D01*
X-41096052Y-44670835D01*
X-41074667Y-44574511D01*
X-41057859Y-44480367D01*
X-41045225Y-44385117D01*
X-41036360Y-44285470D01*
X-41030862Y-44178140D01*
X-41028326Y-44059836D01*
X-41028045Y-44003969D01*
X-41028720Y-43948608D01*
X-41560794Y-43948608D01*
X-41560897Y-44028746D01*
X-41562563Y-44108410D01*
X-41565759Y-44183537D01*
X-41570456Y-44250060D01*
X-41574176Y-44285750D01*
X-41606050Y-44483048D01*
X-41652701Y-44674663D01*
X-41713951Y-44860222D01*
X-41789619Y-45039349D01*
X-41879527Y-45211669D01*
X-41983494Y-45376809D01*
X-42101341Y-45534393D01*
X-42232888Y-45684047D01*
X-42255224Y-45707260D01*
X-42389458Y-45834334D01*
X-42535160Y-45952270D01*
X-42689631Y-46059090D01*
X-42850169Y-46152816D01*
X-42895958Y-46176504D01*
X-42970366Y-46213153D01*
X-43035607Y-46243372D01*
X-43096104Y-46268940D01*
X-43156278Y-46291634D01*
X-43220551Y-46313233D01*
X-43285625Y-46333227D01*
X-43474838Y-46382640D01*
X-43660589Y-46417091D01*
X-43844327Y-46436714D01*
X-44027503Y-46441642D01*
X-44211564Y-46432011D01*
X-44278106Y-46425031D01*
X-44465438Y-46396087D01*
X-44645019Y-46354278D01*
X-44819357Y-46298854D01*
X-44990959Y-46229064D01*
X-45087916Y-46182866D01*
X-45258548Y-46089447D01*
X-45417964Y-45985712D01*
X-45566922Y-45870974D01*
X-45706179Y-45744550D01*
X-45836494Y-45605754D01*
X-45958624Y-45453903D01*
X-46066892Y-45298259D01*
X-46092018Y-45257068D01*
X-46121341Y-45204940D01*
X-46153041Y-45145496D01*
X-46185299Y-45082356D01*
X-46216293Y-45019140D01*
X-46244206Y-44959467D01*
X-46267215Y-44906957D01*
X-46280653Y-44873125D01*
X-46343520Y-44681584D01*
X-46390916Y-44488845D01*
X-46422800Y-44295450D01*
X-46439130Y-44101940D01*
X-46439868Y-43908857D01*
X-46424972Y-43716742D01*
X-46394402Y-43526136D01*
X-46384599Y-43480094D01*
X-46350950Y-43343801D01*
X-46312642Y-43217618D01*
X-46267704Y-43096007D01*
X-46214163Y-42973432D01*
X-46176504Y-42895958D01*
X-46082799Y-42727110D01*
X-45975974Y-42566673D01*
X-45856798Y-42415368D01*
X-45726037Y-42273914D01*
X-45584460Y-42143031D01*
X-45432834Y-42023440D01*
X-45271927Y-41915860D01*
X-45102507Y-41821011D01*
X-44958325Y-41753480D01*
X-44786697Y-41687085D01*
X-44614143Y-41635087D01*
X-44438656Y-41597078D01*
X-44258226Y-41572651D01*
X-44070845Y-41561397D01*
X-44007938Y-41560507D01*
X-43809843Y-41566877D01*
X-43618215Y-41587522D01*
X-43432281Y-41622673D01*
X-43251265Y-41672567D01*
X-43074394Y-41737435D01*
X-42900894Y-41817513D01*
X-42729991Y-41913035D01*
X-42629294Y-41977244D01*
X-42489861Y-42078772D01*
X-42355663Y-42193278D01*
X-42228341Y-42318839D01*
X-42109535Y-42453531D01*
X-42000886Y-42595431D01*
X-41904035Y-42742615D01*
X-41820622Y-42893161D01*
X-41785826Y-42966080D01*
X-41724423Y-43110939D01*
X-41674192Y-43250178D01*
X-41633935Y-43388126D01*
X-41602456Y-43529114D01*
X-41578556Y-43677471D01*
X-41570155Y-43746000D01*
X-41565392Y-43803170D01*
X-41562282Y-43872061D01*
X-41560794Y-43948608D01*
X-41028720Y-43948608D01*
X-41029790Y-43860973D01*
X-41035664Y-43730106D01*
X-41046238Y-43608025D01*
X-41062085Y-43491385D01*
X-41083777Y-43376844D01*
X-41111887Y-43261059D01*
X-41146986Y-43140687D01*
X-41189647Y-43012384D01*
X-41205341Y-42968125D01*
X-41283726Y-42773406D01*
X-41376566Y-42585072D01*
X-41483672Y-42403385D01*
X-41604852Y-42228608D01*
X-41739917Y-42061003D01*
X-41888674Y-41900833D01*
X-42050933Y-41748360D01*
X-42157771Y-41658179D01*
X-42243600Y-41592686D01*
X-42341139Y-41525360D01*
X-42446748Y-41458412D01*
X-42556786Y-41394055D01*
X-42667613Y-41334500D01*
X-42775589Y-41281958D01*
X-42781594Y-41279215D01*
X-42851554Y-41249342D01*
X-42932735Y-41217956D01*
X-43020767Y-41186536D01*
X-43111279Y-41156562D01*
X-43199901Y-41129511D01*
X-43282264Y-41106864D01*
X-43314150Y-41098971D01*
X-43407375Y-41078203D01*
X-43496349Y-41061543D01*
X-43584353Y-41048652D01*
X-43674669Y-41039195D01*
X-43770578Y-41032832D01*
X-43875360Y-41029228D01*
X-43992295Y-41028044D01*
X-44003969Y-41028045D01*
M02*
