M48
; DRILL file {KiCad (5.1.2)-1} date 9/18/2019 10:36:51 AM
; FORMAT={-:-/ absolute / inch / decimal}
; #@! TF.CreationDate,2019-09-18T10:36:51+09:00
; #@! TF.GenerationSoftware,Kicad,Pcbnew,(5.1.2)-1
; #@! TF.FileFunction,Plated,1,2,PTH
FMAT,2
INCH
T1C0.0236
T2C0.2165
%
G90
G05
T1
X1.9045Y2.0669
X1.9517Y2.1822
X1.9517Y1.9517
X2.0669Y2.2293
X2.0669Y1.9045
X2.1822Y2.1822
X2.1822Y1.9517
X2.2293Y2.0669
X-2.2293Y-2.0669
X-2.1822Y-1.9517
X-2.1822Y-2.1822
X-2.0669Y-1.9045
X-2.0669Y-2.2293
X-1.9517Y-1.9517
X-1.9517Y-2.1822
X-1.9045Y-2.0669
X1.9045Y-2.0669
X1.9517Y-1.9517
X1.9517Y-2.1822
X2.0669Y-1.9045
X2.0669Y-2.2293
X2.1822Y-1.9517
X2.1822Y-2.1822
X2.2293Y-2.0669
X-2.2293Y2.0669
X-2.1822Y2.1822
X-2.1822Y1.9517
X-2.0669Y2.2293
X-2.0669Y1.9045
X-1.9517Y2.1822
X-1.9517Y1.9517
X-1.9045Y2.0669
T2
X2.0669Y2.0669
X-2.0669Y-2.0669
X2.0669Y-2.0669
X-2.0669Y2.0669
T0
M30
