M48
; DRILL file {KiCad (5.1.4)-1} date 12/31/2020 1:27:08 AM
; FORMAT={-:-/ absolute / inch / decimal}
; #@! TF.CreationDate,2020-12-31T01:27:08+09:00
; #@! TF.GenerationSoftware,Kicad,Pcbnew,(5.1.4)-1
; #@! TF.FileFunction,Plated,1,2,PTH
FMAT,2
INCH
T1C0.0236
T2C0.1693
%
G90
G05
T1
X-1.9771Y1.9771
X-1.94Y2.0669
X1.94Y2.0669
X1.9771Y1.9771
X1.94Y-2.0669
X1.9771Y-1.9771
X1.9771Y-2.1567
X2.0669Y-1.94
X2.0669Y-2.1939
X2.1567Y-1.9771
X2.1567Y-2.1567
X2.1939Y-2.0669
X-2.1939Y-2.0669
X-2.1567Y-1.9771
X-2.1567Y-2.1567
X-2.0669Y-1.94
X-2.0669Y-2.1939
X-1.9771Y-1.9771
X-1.9771Y-2.1567
X-1.94Y-2.0669
X-2.1939Y2.0669
X-2.1567Y2.1567
X-2.1567Y1.9771
X-2.0669Y2.1939
X-2.0669Y1.94
X-1.9771Y2.1567
X1.9771Y2.1567
X2.0669Y2.1939
X2.0669Y1.94
X2.1567Y2.1567
X2.1567Y1.9771
X2.1939Y2.0669
T2
X2.0669Y-2.0669
X-2.0669Y-2.0669
X-2.0669Y2.0669
X2.0669Y2.0669
T0
M30
