G04 #@! TF.GenerationSoftware,KiCad,Pcbnew,(5.1.4)-1*
G04 #@! TF.CreationDate,2020-12-31T01:27:08+09:00*
G04 #@! TF.ProjectId,fan-vent-blocker,66616e2d-7665-46e7-942d-626c6f636b65,rev?*
G04 #@! TF.SameCoordinates,Original*
G04 #@! TF.FileFunction,Soldermask,Bot*
G04 #@! TF.FilePolarity,Negative*
%FSLAX46Y46*%
G04 Gerber Fmt 4.6, Leading zero omitted, Abs format (unit mm)*
G04 Created by KiCad (PCBNEW (5.1.4)-1) date 2020-12-31 01:27:08*
%MOMM*%
%LPD*%
G04 APERTURE LIST*
%ADD10C,0.100000*%
G04 APERTURE END LIST*
D10*
G36*
X-51951844Y-48172794D02*
G01*
X-51230860Y-48316206D01*
X-50439028Y-48644193D01*
X-49726399Y-49120357D01*
X-49120357Y-49726399D01*
X-48644193Y-50439028D01*
X-48316206Y-51230860D01*
X-48149000Y-52071464D01*
X-48149000Y-52928536D01*
X-48316206Y-53769140D01*
X-48644193Y-54560972D01*
X-49120357Y-55273601D01*
X-49726399Y-55879643D01*
X-50439028Y-56355807D01*
X-51230860Y-56683794D01*
X-51951844Y-56827206D01*
X-52071463Y-56851000D01*
X-52928537Y-56851000D01*
X-53048156Y-56827206D01*
X-53769140Y-56683794D01*
X-54560972Y-56355807D01*
X-55273601Y-55879643D01*
X-55879643Y-55273601D01*
X-56355807Y-54560972D01*
X-56683794Y-53769140D01*
X-56851000Y-52928536D01*
X-56851000Y-52071464D01*
X-56683794Y-51230860D01*
X-56355807Y-50439028D01*
X-55879643Y-49726399D01*
X-55273601Y-49120357D01*
X-54560972Y-48644193D01*
X-53769140Y-48316206D01*
X-53048156Y-48172794D01*
X-52928537Y-48149000D01*
X-52071463Y-48149000D01*
X-51951844Y-48172794D01*
X-51951844Y-48172794D01*
G37*
G36*
X53048156Y-48172794D02*
G01*
X53769140Y-48316206D01*
X54560972Y-48644193D01*
X55273601Y-49120357D01*
X55879643Y-49726399D01*
X56355807Y-50439028D01*
X56683794Y-51230860D01*
X56851000Y-52071464D01*
X56851000Y-52928536D01*
X56683794Y-53769140D01*
X56355807Y-54560972D01*
X55879643Y-55273601D01*
X55273601Y-55879643D01*
X54560972Y-56355807D01*
X53769140Y-56683794D01*
X53048156Y-56827206D01*
X52928537Y-56851000D01*
X52071463Y-56851000D01*
X51951844Y-56827206D01*
X51230860Y-56683794D01*
X50439028Y-56355807D01*
X49726399Y-55879643D01*
X49120357Y-55273601D01*
X48644193Y-54560972D01*
X48316206Y-53769140D01*
X48149000Y-52928536D01*
X48149000Y-52071464D01*
X48316206Y-51230860D01*
X48644193Y-50439028D01*
X49120357Y-49726399D01*
X49726399Y-49120357D01*
X50439028Y-48644193D01*
X51230860Y-48316206D01*
X51951844Y-48172794D01*
X52071463Y-48149000D01*
X52928537Y-48149000D01*
X53048156Y-48172794D01*
X53048156Y-48172794D01*
G37*
G36*
X-51951844Y56827206D02*
G01*
X-51230860Y56683794D01*
X-50439028Y56355807D01*
X-49726399Y55879643D01*
X-49120357Y55273601D01*
X-48644193Y54560972D01*
X-48316206Y53769140D01*
X-48149000Y52928536D01*
X-48149000Y52071464D01*
X-48316206Y51230860D01*
X-48644193Y50439028D01*
X-49120357Y49726399D01*
X-49726399Y49120357D01*
X-50439028Y48644193D01*
X-51230860Y48316206D01*
X-51951844Y48172794D01*
X-52071463Y48149000D01*
X-52928537Y48149000D01*
X-53048156Y48172794D01*
X-53769140Y48316206D01*
X-54560972Y48644193D01*
X-55273601Y49120357D01*
X-55879643Y49726399D01*
X-56355807Y50439028D01*
X-56683794Y51230860D01*
X-56851000Y52071464D01*
X-56851000Y52928536D01*
X-56683794Y53769140D01*
X-56355807Y54560972D01*
X-55879643Y55273601D01*
X-55273601Y55879643D01*
X-54560972Y56355807D01*
X-53769140Y56683794D01*
X-53048156Y56827206D01*
X-52928537Y56851000D01*
X-52071463Y56851000D01*
X-51951844Y56827206D01*
X-51951844Y56827206D01*
G37*
G36*
X53048156Y56827206D02*
G01*
X53769140Y56683794D01*
X54560972Y56355807D01*
X55273601Y55879643D01*
X55879643Y55273601D01*
X56355807Y54560972D01*
X56683794Y53769140D01*
X56851000Y52928536D01*
X56851000Y52071464D01*
X56683794Y51230860D01*
X56355807Y50439028D01*
X55879643Y49726399D01*
X55273601Y49120357D01*
X54560972Y48644193D01*
X53769140Y48316206D01*
X53048156Y48172794D01*
X52928537Y48149000D01*
X52071463Y48149000D01*
X51951844Y48172794D01*
X51230860Y48316206D01*
X50439028Y48644193D01*
X49726399Y49120357D01*
X49120357Y49726399D01*
X48644193Y50439028D01*
X48316206Y51230860D01*
X48149000Y52071464D01*
X48149000Y52928536D01*
X48316206Y53769140D01*
X48644193Y54560972D01*
X49120357Y55273601D01*
X49726399Y55879643D01*
X50439028Y56355807D01*
X51230860Y56683794D01*
X51951844Y56827206D01*
X52071463Y56851000D01*
X52928537Y56851000D01*
X53048156Y56827206D01*
X53048156Y56827206D01*
G37*
M02*
