M48
; DRILL file {KiCad (5.1.4)-1} date 12/31/2020 1:33:55 AM
; FORMAT={-:-/ absolute / inch / decimal}
; #@! TF.CreationDate,2020-12-31T01:33:55+09:00
; #@! TF.GenerationSoftware,Kicad,Pcbnew,(5.1.4)-1
; #@! TF.FileFunction,Plated,1,2,PTH
FMAT,2
INCH
T1C0.0236
T2C0.1693
%
G90
G05
T1
X1.497Y-1.624
X1.5342Y-1.5342
X1.5342Y-1.7138
X1.624Y-1.497
X1.624Y-1.751
X1.7138Y-1.5342
X1.7138Y-1.7138
X1.751Y-1.624
X-1.751Y1.624
X-1.7138Y1.7138
X-1.7138Y1.5342
X-1.624Y1.751
X-1.624Y1.497
X-1.5342Y1.7138
X-1.5342Y1.5342
X-1.497Y1.624
X-1.751Y-1.624
X-1.7138Y-1.5342
X-1.7138Y-1.7138
X-1.624Y-1.497
X-1.624Y-1.751
X-1.5342Y-1.5342
X-1.5342Y-1.7138
X-1.497Y-1.624
X1.497Y1.624
X1.5342Y1.7138
X1.5342Y1.5342
X1.624Y1.751
X1.624Y1.497
X1.7138Y1.7138
X1.7138Y1.5342
X1.751Y1.624
T2
X1.624Y-1.624
X-1.624Y1.624
X-1.624Y-1.624
X1.624Y1.624
T0
M30
