G04 #@! TF.GenerationSoftware,KiCad,Pcbnew,(5.1.4)-1*
G04 #@! TF.CreationDate,2020-12-31T01:33:54+09:00*
G04 #@! TF.ProjectId,fan-vent-blocker,66616e2d-7665-46e7-942d-626c6f636b65,rev?*
G04 #@! TF.SameCoordinates,Original*
G04 #@! TF.FileFunction,Copper,L1,Top*
G04 #@! TF.FilePolarity,Positive*
%FSLAX46Y46*%
G04 Gerber Fmt 4.6, Leading zero omitted, Abs format (unit mm)*
G04 Created by KiCad (PCBNEW (5.1.4)-1) date 2020-12-31 01:33:54*
%MOMM*%
%LPD*%
G04 APERTURE LIST*
%ADD10C,0.900000*%
%ADD11C,8.600000*%
%ADD12C,0.254000*%
G04 APERTURE END LIST*
D10*
X-38969581Y-38969581D03*
X-41250000Y-38025000D03*
X-43530419Y-38969581D03*
X-44475000Y-41250000D03*
X-43530419Y-43530419D03*
X-41250000Y-44475000D03*
X-38969581Y-43530419D03*
X-38025000Y-41250000D03*
D11*
X-41250000Y-41250000D03*
D10*
X43530419Y43530419D03*
X41250000Y44475000D03*
X38969581Y43530419D03*
X38025000Y41250000D03*
X38969581Y38969581D03*
X41250000Y38025000D03*
X43530419Y38969581D03*
X44475000Y41250000D03*
D11*
X41250000Y41250000D03*
D10*
X43530419Y-38969581D03*
X41250000Y-38025000D03*
X38969581Y-38969581D03*
X38025000Y-41250000D03*
X38969581Y-43530419D03*
X41250000Y-44475000D03*
X43530419Y-43530419D03*
X44475000Y-41250000D03*
D11*
X41250000Y-41250000D03*
D10*
X-38969581Y43530419D03*
X-41250000Y44475000D03*
X-43530419Y43530419D03*
X-44475000Y41250000D03*
X-43530419Y38969581D03*
X-41250000Y38025000D03*
X-38969581Y38969581D03*
X-38025000Y41250000D03*
D11*
X-41250000Y41250000D03*
D12*
G36*
X42225555Y45267779D02*
G01*
X42924940Y45062602D01*
X43572904Y44728880D01*
X44146074Y44278647D01*
X44623762Y43728161D01*
X44988742Y43097270D01*
X45227836Y42408752D01*
X45335790Y41664210D01*
X45340000Y41491937D01*
X45340001Y-41468581D01*
X45267779Y-42225555D01*
X45062602Y-42924940D01*
X44728878Y-43572906D01*
X44278650Y-44146072D01*
X43728159Y-44623763D01*
X43097270Y-44988741D01*
X42408752Y-45227836D01*
X41664210Y-45335790D01*
X41491937Y-45340000D01*
X-41468591Y-45340000D01*
X-42225555Y-45267779D01*
X-42924940Y-45062602D01*
X-43572906Y-44728878D01*
X-44146072Y-44278650D01*
X-44623763Y-43728159D01*
X-44988741Y-43097270D01*
X-45227836Y-42408752D01*
X-45335790Y-41664210D01*
X-45340000Y-41491937D01*
X-45340000Y41468591D01*
X-45267779Y42225555D01*
X-45062602Y42924940D01*
X-44728880Y43572904D01*
X-44278647Y44146074D01*
X-43728161Y44623762D01*
X-43097270Y44988742D01*
X-42408752Y45227836D01*
X-41664210Y45335790D01*
X-41491937Y45340000D01*
X41468591Y45340000D01*
X42225555Y45267779D01*
X42225555Y45267779D01*
G37*
X42225555Y45267779D02*
X42924940Y45062602D01*
X43572904Y44728880D01*
X44146074Y44278647D01*
X44623762Y43728161D01*
X44988742Y43097270D01*
X45227836Y42408752D01*
X45335790Y41664210D01*
X45340000Y41491937D01*
X45340001Y-41468581D01*
X45267779Y-42225555D01*
X45062602Y-42924940D01*
X44728878Y-43572906D01*
X44278650Y-44146072D01*
X43728159Y-44623763D01*
X43097270Y-44988741D01*
X42408752Y-45227836D01*
X41664210Y-45335790D01*
X41491937Y-45340000D01*
X-41468591Y-45340000D01*
X-42225555Y-45267779D01*
X-42924940Y-45062602D01*
X-43572906Y-44728878D01*
X-44146072Y-44278650D01*
X-44623763Y-43728159D01*
X-44988741Y-43097270D01*
X-45227836Y-42408752D01*
X-45335790Y-41664210D01*
X-45340000Y-41491937D01*
X-45340000Y41468591D01*
X-45267779Y42225555D01*
X-45062602Y42924940D01*
X-44728880Y43572904D01*
X-44278647Y44146074D01*
X-43728161Y44623762D01*
X-43097270Y44988742D01*
X-42408752Y45227836D01*
X-41664210Y45335790D01*
X-41491937Y45340000D01*
X41468591Y45340000D01*
X42225555Y45267779D01*
M02*
