G04 #@! TF.GenerationSoftware,KiCad,Pcbnew,(5.1.4)-1*
G04 #@! TF.CreationDate,2020-12-31T01:33:54+09:00*
G04 #@! TF.ProjectId,fan-vent-blocker,66616e2d-7665-46e7-942d-626c6f636b65,rev?*
G04 #@! TF.SameCoordinates,Original*
G04 #@! TF.FileFunction,Soldermask,Bot*
G04 #@! TF.FilePolarity,Negative*
%FSLAX46Y46*%
G04 Gerber Fmt 4.6, Leading zero omitted, Abs format (unit mm)*
G04 Created by KiCad (PCBNEW (5.1.4)-1) date 2020-12-31 01:33:54*
%MOMM*%
%LPD*%
G04 APERTURE LIST*
%ADD10C,0.100000*%
G04 APERTURE END LIST*
D10*
G36*
X-40701844Y-36922794D02*
G01*
X-39980860Y-37066206D01*
X-39189028Y-37394193D01*
X-38476399Y-37870357D01*
X-37870357Y-38476399D01*
X-37394193Y-39189028D01*
X-37066206Y-39980860D01*
X-36899000Y-40821464D01*
X-36899000Y-41678536D01*
X-37066206Y-42519140D01*
X-37394193Y-43310972D01*
X-37870357Y-44023601D01*
X-38476399Y-44629643D01*
X-39189028Y-45105807D01*
X-39980860Y-45433794D01*
X-40701844Y-45577206D01*
X-40821463Y-45601000D01*
X-41678537Y-45601000D01*
X-41798156Y-45577206D01*
X-42519140Y-45433794D01*
X-43310972Y-45105807D01*
X-44023601Y-44629643D01*
X-44629643Y-44023601D01*
X-45105807Y-43310972D01*
X-45433794Y-42519140D01*
X-45601000Y-41678536D01*
X-45601000Y-40821464D01*
X-45433794Y-39980860D01*
X-45105807Y-39189028D01*
X-44629643Y-38476399D01*
X-44023601Y-37870357D01*
X-43310972Y-37394193D01*
X-42519140Y-37066206D01*
X-41798156Y-36922794D01*
X-41678537Y-36899000D01*
X-40821463Y-36899000D01*
X-40701844Y-36922794D01*
X-40701844Y-36922794D01*
G37*
G36*
X41798156Y-36922794D02*
G01*
X42519140Y-37066206D01*
X43310972Y-37394193D01*
X44023601Y-37870357D01*
X44629643Y-38476399D01*
X45105807Y-39189028D01*
X45433794Y-39980860D01*
X45601000Y-40821464D01*
X45601000Y-41678536D01*
X45433794Y-42519140D01*
X45105807Y-43310972D01*
X44629643Y-44023601D01*
X44023601Y-44629643D01*
X43310972Y-45105807D01*
X42519140Y-45433794D01*
X41798156Y-45577206D01*
X41678537Y-45601000D01*
X40821463Y-45601000D01*
X40701844Y-45577206D01*
X39980860Y-45433794D01*
X39189028Y-45105807D01*
X38476399Y-44629643D01*
X37870357Y-44023601D01*
X37394193Y-43310972D01*
X37066206Y-42519140D01*
X36899000Y-41678536D01*
X36899000Y-40821464D01*
X37066206Y-39980860D01*
X37394193Y-39189028D01*
X37870357Y-38476399D01*
X38476399Y-37870357D01*
X39189028Y-37394193D01*
X39980860Y-37066206D01*
X40701844Y-36922794D01*
X40821463Y-36899000D01*
X41678537Y-36899000D01*
X41798156Y-36922794D01*
X41798156Y-36922794D01*
G37*
G36*
X-40701844Y45577206D02*
G01*
X-39980860Y45433794D01*
X-39189028Y45105807D01*
X-38476399Y44629643D01*
X-37870357Y44023601D01*
X-37394193Y43310972D01*
X-37066206Y42519140D01*
X-36899000Y41678536D01*
X-36899000Y40821464D01*
X-37066206Y39980860D01*
X-37394193Y39189028D01*
X-37870357Y38476399D01*
X-38476399Y37870357D01*
X-39189028Y37394193D01*
X-39980860Y37066206D01*
X-40701844Y36922794D01*
X-40821463Y36899000D01*
X-41678537Y36899000D01*
X-41798156Y36922794D01*
X-42519140Y37066206D01*
X-43310972Y37394193D01*
X-44023601Y37870357D01*
X-44629643Y38476399D01*
X-45105807Y39189028D01*
X-45433794Y39980860D01*
X-45601000Y40821464D01*
X-45601000Y41678536D01*
X-45433794Y42519140D01*
X-45105807Y43310972D01*
X-44629643Y44023601D01*
X-44023601Y44629643D01*
X-43310972Y45105807D01*
X-42519140Y45433794D01*
X-41798156Y45577206D01*
X-41678537Y45601000D01*
X-40821463Y45601000D01*
X-40701844Y45577206D01*
X-40701844Y45577206D01*
G37*
G36*
X41798156Y45577206D02*
G01*
X42519140Y45433794D01*
X43310972Y45105807D01*
X44023601Y44629643D01*
X44629643Y44023601D01*
X45105807Y43310972D01*
X45433794Y42519140D01*
X45601000Y41678536D01*
X45601000Y40821464D01*
X45433794Y39980860D01*
X45105807Y39189028D01*
X44629643Y38476399D01*
X44023601Y37870357D01*
X43310972Y37394193D01*
X42519140Y37066206D01*
X41798156Y36922794D01*
X41678537Y36899000D01*
X40821463Y36899000D01*
X40701844Y36922794D01*
X39980860Y37066206D01*
X39189028Y37394193D01*
X38476399Y37870357D01*
X37870357Y38476399D01*
X37394193Y39189028D01*
X37066206Y39980860D01*
X36899000Y40821464D01*
X36899000Y41678536D01*
X37066206Y42519140D01*
X37394193Y43310972D01*
X37870357Y44023601D01*
X38476399Y44629643D01*
X39189028Y45105807D01*
X39980860Y45433794D01*
X40701844Y45577206D01*
X40821463Y45601000D01*
X41678537Y45601000D01*
X41798156Y45577206D01*
X41798156Y45577206D01*
G37*
M02*
