G04 #@! TF.GenerationSoftware,KiCad,Pcbnew,(5.1.4)-1*
G04 #@! TF.CreationDate,2020-12-31T01:33:54+09:00*
G04 #@! TF.ProjectId,fan-vent-blocker,66616e2d-7665-46e7-942d-626c6f636b65,rev?*
G04 #@! TF.SameCoordinates,Original*
G04 #@! TF.FileFunction,Soldermask,Top*
G04 #@! TF.FilePolarity,Negative*
%FSLAX46Y46*%
G04 Gerber Fmt 4.6, Leading zero omitted, Abs format (unit mm)*
G04 Created by KiCad (PCBNEW (5.1.4)-1) date 2020-12-31 01:33:54*
%MOMM*%
%LPD*%
G04 APERTURE LIST*
%ADD10C,0.300000*%
%ADD11C,0.010000*%
%ADD12C,0.100000*%
G04 APERTURE END LIST*
D10*
X-23000000Y-41928571D02*
X-22714285Y-41928571D01*
X-22571428Y-41857142D01*
X-22500000Y-41785714D01*
X-22357142Y-41571428D01*
X-22285714Y-41285714D01*
X-22285714Y-40714285D01*
X-22357142Y-40571428D01*
X-22428571Y-40500000D01*
X-22571428Y-40428571D01*
X-22857142Y-40428571D01*
X-23000000Y-40500000D01*
X-23071428Y-40571428D01*
X-23142857Y-40714285D01*
X-23142857Y-41071428D01*
X-23071428Y-41214285D01*
X-23000000Y-41285714D01*
X-22857142Y-41357142D01*
X-22571428Y-41357142D01*
X-22428571Y-41285714D01*
X-22357142Y-41214285D01*
X-22285714Y-41071428D01*
X-21714285Y-40571428D02*
X-21642857Y-40500000D01*
X-21500000Y-40428571D01*
X-21142857Y-40428571D01*
X-21000000Y-40500000D01*
X-20928571Y-40571428D01*
X-20857142Y-40714285D01*
X-20857142Y-40857142D01*
X-20928571Y-41071428D01*
X-21785714Y-41928571D01*
X-20857142Y-41928571D01*
X-20214285Y-41928571D02*
X-20214285Y-40928571D01*
X-20214285Y-41071428D02*
X-20142857Y-41000000D01*
X-20000000Y-40928571D01*
X-19785714Y-40928571D01*
X-19642857Y-41000000D01*
X-19571428Y-41142857D01*
X-19571428Y-41928571D01*
X-19571428Y-41142857D02*
X-19500000Y-41000000D01*
X-19357142Y-40928571D01*
X-19142857Y-40928571D01*
X-19000000Y-41000000D01*
X-18928571Y-41142857D01*
X-18928571Y-41928571D01*
X-18214285Y-41928571D02*
X-18214285Y-40928571D01*
X-18214285Y-41071428D02*
X-18142857Y-41000000D01*
X-18000000Y-40928571D01*
X-17785714Y-40928571D01*
X-17642857Y-41000000D01*
X-17571428Y-41142857D01*
X-17571428Y-41928571D01*
X-17571428Y-41142857D02*
X-17500000Y-41000000D01*
X-17357142Y-40928571D01*
X-17142857Y-40928571D01*
X-17000000Y-41000000D01*
X-16928571Y-41142857D01*
X-16928571Y-41928571D01*
X-14571428Y-41142857D02*
X-15071428Y-41142857D01*
X-15071428Y-41928571D02*
X-15071428Y-40428571D01*
X-14357142Y-40428571D01*
X-13142857Y-41928571D02*
X-13142857Y-41142857D01*
X-13214285Y-41000000D01*
X-13357142Y-40928571D01*
X-13642857Y-40928571D01*
X-13785714Y-41000000D01*
X-13142857Y-41857142D02*
X-13285714Y-41928571D01*
X-13642857Y-41928571D01*
X-13785714Y-41857142D01*
X-13857142Y-41714285D01*
X-13857142Y-41571428D01*
X-13785714Y-41428571D01*
X-13642857Y-41357142D01*
X-13285714Y-41357142D01*
X-13142857Y-41285714D01*
X-12428571Y-40928571D02*
X-12428571Y-41928571D01*
X-12428571Y-41071428D02*
X-12357142Y-41000000D01*
X-12214285Y-40928571D01*
X-12000000Y-40928571D01*
X-11857142Y-41000000D01*
X-11785714Y-41142857D01*
X-11785714Y-41928571D01*
X-10142857Y-40428571D02*
X-9642857Y-41928571D01*
X-9142857Y-40428571D01*
X-8071428Y-41857142D02*
X-8214285Y-41928571D01*
X-8500000Y-41928571D01*
X-8642857Y-41857142D01*
X-8714285Y-41714285D01*
X-8714285Y-41142857D01*
X-8642857Y-41000000D01*
X-8500000Y-40928571D01*
X-8214285Y-40928571D01*
X-8071428Y-41000000D01*
X-8000000Y-41142857D01*
X-8000000Y-41285714D01*
X-8714285Y-41428571D01*
X-7357142Y-40928571D02*
X-7357142Y-41928571D01*
X-7357142Y-41071428D02*
X-7285714Y-41000000D01*
X-7142857Y-40928571D01*
X-6928571Y-40928571D01*
X-6785714Y-41000000D01*
X-6714285Y-41142857D01*
X-6714285Y-41928571D01*
X-6214285Y-40928571D02*
X-5642857Y-40928571D01*
X-6000000Y-40428571D02*
X-6000000Y-41714285D01*
X-5928571Y-41857142D01*
X-5785714Y-41928571D01*
X-5642857Y-41928571D01*
X-3500000Y-41142857D02*
X-3285714Y-41214285D01*
X-3214285Y-41285714D01*
X-3142857Y-41428571D01*
X-3142857Y-41642857D01*
X-3214285Y-41785714D01*
X-3285714Y-41857142D01*
X-3428571Y-41928571D01*
X-4000000Y-41928571D01*
X-4000000Y-40428571D01*
X-3500000Y-40428571D01*
X-3357142Y-40500000D01*
X-3285714Y-40571428D01*
X-3214285Y-40714285D01*
X-3214285Y-40857142D01*
X-3285714Y-41000000D01*
X-3357142Y-41071428D01*
X-3500000Y-41142857D01*
X-4000000Y-41142857D01*
X-2285714Y-41928571D02*
X-2428571Y-41857142D01*
X-2500000Y-41714285D01*
X-2500000Y-40428571D01*
X-1500000Y-41928571D02*
X-1642857Y-41857142D01*
X-1714285Y-41785714D01*
X-1785714Y-41642857D01*
X-1785714Y-41214285D01*
X-1714285Y-41071428D01*
X-1642857Y-41000000D01*
X-1500000Y-40928571D01*
X-1285714Y-40928571D01*
X-1142857Y-41000000D01*
X-1071428Y-41071428D01*
X-1000000Y-41214285D01*
X-1000000Y-41642857D01*
X-1071428Y-41785714D01*
X-1142857Y-41857142D01*
X-1285714Y-41928571D01*
X-1500000Y-41928571D01*
X285714Y-41857142D02*
X142857Y-41928571D01*
X-142857Y-41928571D01*
X-285714Y-41857142D01*
X-357142Y-41785714D01*
X-428571Y-41642857D01*
X-428571Y-41214285D01*
X-357142Y-41071428D01*
X-285714Y-41000000D01*
X-142857Y-40928571D01*
X142857Y-40928571D01*
X285714Y-41000000D01*
X928571Y-41928571D02*
X928571Y-40428571D01*
X1071428Y-41357142D02*
X1500000Y-41928571D01*
X1500000Y-40928571D02*
X928571Y-41500000D01*
X2714285Y-41857142D02*
X2571428Y-41928571D01*
X2285714Y-41928571D01*
X2142857Y-41857142D01*
X2071428Y-41714285D01*
X2071428Y-41142857D01*
X2142857Y-41000000D01*
X2285714Y-40928571D01*
X2571428Y-40928571D01*
X2714285Y-41000000D01*
X2785714Y-41142857D01*
X2785714Y-41285714D01*
X2071428Y-41428571D01*
X3428571Y-41928571D02*
X3428571Y-40928571D01*
X3428571Y-41214285D02*
X3500000Y-41071428D01*
X3571428Y-41000000D01*
X3714285Y-40928571D01*
X3857142Y-40928571D01*
X5857142Y-42428571D02*
X5857142Y-40285714D01*
X7928571Y-40928571D02*
X8214285Y-41928571D01*
X8500000Y-41214285D01*
X8785714Y-41928571D01*
X9071428Y-40928571D01*
X9500000Y-40928571D02*
X9785714Y-41928571D01*
X10071428Y-41214285D01*
X10357142Y-41928571D01*
X10642857Y-40928571D01*
X11071428Y-40928571D02*
X11357142Y-41928571D01*
X11642857Y-41214285D01*
X11928571Y-41928571D01*
X12214285Y-40928571D01*
X12785714Y-41785714D02*
X12857142Y-41857142D01*
X12785714Y-41928571D01*
X12714285Y-41857142D01*
X12785714Y-41785714D01*
X12785714Y-41928571D01*
X14142857Y-41928571D02*
X14142857Y-41142857D01*
X14071428Y-41000000D01*
X13928571Y-40928571D01*
X13642857Y-40928571D01*
X13500000Y-41000000D01*
X14142857Y-41857142D02*
X14000000Y-41928571D01*
X13642857Y-41928571D01*
X13500000Y-41857142D01*
X13428571Y-41714285D01*
X13428571Y-41571428D01*
X13500000Y-41428571D01*
X13642857Y-41357142D01*
X14000000Y-41357142D01*
X14142857Y-41285714D01*
X14857142Y-41928571D02*
X14857142Y-40928571D01*
X14857142Y-40428571D02*
X14785714Y-40500000D01*
X14857142Y-40571428D01*
X14928571Y-40500000D01*
X14857142Y-40428571D01*
X14857142Y-40571428D01*
X15857142Y-40428571D02*
X16000000Y-40428571D01*
X16142857Y-40500000D01*
X16214285Y-40571428D01*
X16285714Y-40714285D01*
X16357142Y-41000000D01*
X16357142Y-41357142D01*
X16285714Y-41642857D01*
X16214285Y-41785714D01*
X16142857Y-41857142D01*
X16000000Y-41928571D01*
X15857142Y-41928571D01*
X15714285Y-41857142D01*
X15642857Y-41785714D01*
X15571428Y-41642857D01*
X15500000Y-41357142D01*
X15500000Y-41000000D01*
X15571428Y-40714285D01*
X15642857Y-40571428D01*
X15714285Y-40500000D01*
X15857142Y-40428571D01*
X16857142Y-40428571D02*
X17785714Y-40428571D01*
X17285714Y-41000000D01*
X17500000Y-41000000D01*
X17642857Y-41071428D01*
X17714285Y-41142857D01*
X17785714Y-41285714D01*
X17785714Y-41642857D01*
X17714285Y-41785714D01*
X17642857Y-41857142D01*
X17500000Y-41928571D01*
X17071428Y-41928571D01*
X16928571Y-41857142D01*
X16857142Y-41785714D01*
X18428571Y-41785714D02*
X18500000Y-41857142D01*
X18428571Y-41928571D01*
X18357142Y-41857142D01*
X18428571Y-41785714D01*
X18428571Y-41928571D01*
X19785714Y-41857142D02*
X19642857Y-41928571D01*
X19357142Y-41928571D01*
X19214285Y-41857142D01*
X19142857Y-41785714D01*
X19071428Y-41642857D01*
X19071428Y-41214285D01*
X19142857Y-41071428D01*
X19214285Y-41000000D01*
X19357142Y-40928571D01*
X19642857Y-40928571D01*
X19785714Y-41000000D01*
X20642857Y-41928571D02*
X20500000Y-41857142D01*
X20428571Y-41785714D01*
X20357142Y-41642857D01*
X20357142Y-41214285D01*
X20428571Y-41071428D01*
X20500000Y-41000000D01*
X20642857Y-40928571D01*
X20857142Y-40928571D01*
X21000000Y-41000000D01*
X21071428Y-41071428D01*
X21142857Y-41214285D01*
X21142857Y-41642857D01*
X21071428Y-41785714D01*
X21000000Y-41857142D01*
X20857142Y-41928571D01*
X20642857Y-41928571D01*
X21785714Y-41928571D02*
X21785714Y-40928571D01*
X21785714Y-41071428D02*
X21857142Y-41000000D01*
X22000000Y-40928571D01*
X22214285Y-40928571D01*
X22357142Y-41000000D01*
X22428571Y-41142857D01*
X22428571Y-41928571D01*
X22428571Y-41142857D02*
X22500000Y-41000000D01*
X22642857Y-40928571D01*
X22857142Y-40928571D01*
X23000000Y-41000000D01*
X23071428Y-41142857D01*
X23071428Y-41928571D01*
D11*
G36*
X812799Y4605867D02*
G01*
X-914400Y4605867D01*
X-914400Y6333067D01*
X812799Y6333067D01*
X812799Y4605867D01*
X812799Y4605867D01*
G37*
X812799Y4605867D02*
X-914400Y4605867D01*
X-914400Y6333067D01*
X812799Y6333067D01*
X812799Y4605867D01*
G36*
X2539999Y1253067D02*
G01*
X812799Y1253067D01*
X812799Y2878667D01*
X2539999Y2878667D01*
X2539999Y1253067D01*
X2539999Y1253067D01*
G37*
X2539999Y1253067D02*
X812799Y1253067D01*
X812799Y2878667D01*
X2539999Y2878667D01*
X2539999Y1253067D01*
G36*
X-914400Y1253067D02*
G01*
X-2540000Y1253067D01*
X-2540000Y2878667D01*
X-914400Y2878667D01*
X-914400Y1253067D01*
X-914400Y1253067D01*
G37*
X-914400Y1253067D02*
X-2540000Y1253067D01*
X-2540000Y2878667D01*
X-914400Y2878667D01*
X-914400Y1253067D01*
G36*
X4165600Y-2201333D02*
G01*
X2539999Y-2201333D01*
X2539999Y-474133D01*
X4165600Y-474133D01*
X4165600Y-2201333D01*
X4165600Y-2201333D01*
G37*
X4165600Y-2201333D02*
X2539999Y-2201333D01*
X2539999Y-474133D01*
X4165600Y-474133D01*
X4165600Y-2201333D01*
G36*
X812799Y-2201333D02*
G01*
X-914400Y-2201333D01*
X-914400Y-474133D01*
X812799Y-474133D01*
X812799Y-2201333D01*
X812799Y-2201333D01*
G37*
X812799Y-2201333D02*
X-914400Y-2201333D01*
X-914400Y-474133D01*
X812799Y-474133D01*
X812799Y-2201333D01*
G36*
X-2540000Y-2201333D02*
G01*
X-4267200Y-2201333D01*
X-4267200Y-474133D01*
X-2540000Y-474133D01*
X-2540000Y-2201333D01*
X-2540000Y-2201333D01*
G37*
X-2540000Y-2201333D02*
X-4267200Y-2201333D01*
X-4267200Y-474133D01*
X-2540000Y-474133D01*
X-2540000Y-2201333D01*
G36*
X5892800Y-5554133D02*
G01*
X4165600Y-5554133D01*
X4165600Y-3826933D01*
X5892800Y-3826933D01*
X5892800Y-5554133D01*
X5892800Y-5554133D01*
G37*
X5892800Y-5554133D02*
X4165600Y-5554133D01*
X4165600Y-3826933D01*
X5892800Y-3826933D01*
X5892800Y-5554133D01*
G36*
X-4267200Y-5554133D02*
G01*
X-5994401Y-5554133D01*
X-5994401Y-3826933D01*
X-4267200Y-3826933D01*
X-4267200Y-5554133D01*
X-4267200Y-5554133D01*
G37*
X-4267200Y-5554133D02*
X-5994401Y-5554133D01*
X-5994401Y-3826933D01*
X-4267200Y-3826933D01*
X-4267200Y-5554133D01*
G36*
X16933Y12680344D02*
G01*
X546505Y12674496D01*
X1023142Y12656760D01*
X1460873Y12625413D01*
X1873731Y12578733D01*
X2275745Y12514997D01*
X2680946Y12432483D01*
X3103365Y12329468D01*
X3296553Y12277682D01*
X4186355Y11999333D01*
X5048597Y11660836D01*
X5880011Y11263883D01*
X6677330Y10810164D01*
X7437287Y10301371D01*
X8086440Y9797903D01*
X8759159Y9197475D01*
X9387796Y8551309D01*
X9969433Y7863960D01*
X10501154Y7139982D01*
X10980041Y6383930D01*
X11403177Y5600360D01*
X11767645Y4793827D01*
X12070528Y3968884D01*
X12278545Y3252040D01*
X12419646Y2654767D01*
X12527849Y2091842D01*
X12606324Y1540280D01*
X12658240Y977096D01*
X12686765Y379307D01*
X12689554Y270934D01*
X12677951Y-660466D01*
X12600320Y-1576875D01*
X12456684Y-2478167D01*
X12247067Y-3364218D01*
X11971493Y-4234900D01*
X11697585Y-4934344D01*
X11577768Y-5212808D01*
X11475102Y-5443881D01*
X11381795Y-5643147D01*
X11290055Y-5826189D01*
X11192090Y-6008589D01*
X11080108Y-6205931D01*
X10955841Y-6417733D01*
X10447174Y-7212490D01*
X9892061Y-7957984D01*
X9289936Y-8654783D01*
X8640234Y-9303451D01*
X7942388Y-9904554D01*
X7195835Y-10458657D01*
X6417733Y-10955841D01*
X6192327Y-11087975D01*
X5996431Y-11198808D01*
X5814463Y-11296131D01*
X5630839Y-11387736D01*
X5429977Y-11481415D01*
X5196294Y-11584960D01*
X4934344Y-11697585D01*
X4523748Y-11866322D01*
X4145220Y-12007287D01*
X3773532Y-12128833D01*
X3383457Y-12239312D01*
X3031066Y-12327773D01*
X2329129Y-12479472D01*
X1658859Y-12589026D01*
X1000819Y-12658742D01*
X335568Y-12690925D01*
X-50800Y-12693388D01*
X-269333Y-12691191D01*
X-474650Y-12688181D01*
X-653340Y-12684629D01*
X-791989Y-12680802D01*
X-877185Y-12676971D01*
X-880534Y-12676730D01*
X-1802875Y-12574536D01*
X-2710638Y-12408193D01*
X-3600157Y-12179057D01*
X-4467765Y-11888480D01*
X-5309798Y-11537819D01*
X-6122590Y-11128427D01*
X-6902476Y-10661659D01*
X-7546554Y-10213528D01*
X-8284379Y-9623249D01*
X-8969962Y-8990240D01*
X-9602345Y-8315900D01*
X-10180571Y-7601629D01*
X-10703684Y-6848826D01*
X-11170727Y-6058889D01*
X-11580743Y-5233217D01*
X-11932774Y-4373210D01*
X-12225865Y-3480267D01*
X-12277682Y-3296553D01*
X-12390178Y-2862231D01*
X-12481421Y-2451246D01*
X-12553135Y-2049567D01*
X-12607041Y-1643164D01*
X-12644863Y-1218005D01*
X-12668324Y-760061D01*
X-12679145Y-255301D01*
X-12680344Y-16933D01*
X-12677461Y219274D01*
X-10407280Y219274D01*
X-10406838Y-122649D01*
X-10399734Y-462551D01*
X-10386096Y-783089D01*
X-10366055Y-1066921D01*
X-10350184Y-1219199D01*
X-10214189Y-2061003D01*
X-10015142Y-2878562D01*
X-9753810Y-3670279D01*
X-9430958Y-4434554D01*
X-9047353Y-5169789D01*
X-8603761Y-5874386D01*
X-8100946Y-6546745D01*
X-7539677Y-7185267D01*
X-7444378Y-7284309D01*
X-6871645Y-7826493D01*
X-6249983Y-8329686D01*
X-5590909Y-8785450D01*
X-4905946Y-9185349D01*
X-4710581Y-9286415D01*
X-4393106Y-9442785D01*
X-4114742Y-9571720D01*
X-3856622Y-9680808D01*
X-3599880Y-9777637D01*
X-3325649Y-9869795D01*
X-3048000Y-9955103D01*
X-2240693Y-10165932D01*
X-1448155Y-10312922D01*
X-664204Y-10396645D01*
X117344Y-10417674D01*
X902674Y-10376580D01*
X1186586Y-10346797D01*
X1985867Y-10223305D01*
X2752080Y-10044920D01*
X3495922Y-9808441D01*
X4228089Y-9510672D01*
X4641773Y-9313560D01*
X5369803Y-8914974D01*
X6049978Y-8472369D01*
X6685532Y-7982822D01*
X7279698Y-7443412D01*
X7835708Y-6851219D01*
X8356796Y-6203320D01*
X8818739Y-5539240D01*
X8925941Y-5363488D01*
X9051053Y-5141077D01*
X9186307Y-4887450D01*
X9323940Y-4618053D01*
X9456185Y-4348330D01*
X9575277Y-4093724D01*
X9673450Y-3869681D01*
X9730784Y-3725333D01*
X9999020Y-2908091D01*
X10201242Y-2085739D01*
X10337278Y-1260586D01*
X10406956Y-434943D01*
X10410103Y388879D01*
X10346547Y1208570D01*
X10216115Y2021819D01*
X10174287Y2218267D01*
X10030718Y2799783D01*
X9867274Y3338166D01*
X9675538Y3857038D01*
X9447096Y4380023D01*
X9286415Y4710581D01*
X8886608Y5430998D01*
X8430824Y6115528D01*
X7922338Y6761097D01*
X7364426Y7364634D01*
X6760364Y7923067D01*
X6113426Y8433324D01*
X5426889Y8892332D01*
X4704028Y9297019D01*
X4088854Y9585154D01*
X3356572Y9868438D01*
X2620343Y10090296D01*
X1871597Y10252466D01*
X1101763Y10356690D01*
X302273Y10404707D01*
X33866Y10408504D01*
X-811336Y10381323D01*
X-1628948Y10293242D01*
X-2422270Y10143261D01*
X-3194605Y9930383D01*
X-3949254Y9653610D01*
X-4689520Y9311943D01*
X-5418704Y8904385D01*
X-5848344Y8630425D01*
X-6443259Y8197240D01*
X-7015837Y7708681D01*
X-7559079Y7172955D01*
X-8065984Y6598269D01*
X-8529552Y5992829D01*
X-8942784Y5364841D01*
X-9298680Y4722513D01*
X-9447142Y4411392D01*
X-9709128Y3793326D01*
X-9923448Y3199241D01*
X-10095209Y2610663D01*
X-10229523Y2009115D01*
X-10331496Y1376124D01*
X-10367340Y1083734D01*
X-10387660Y839808D01*
X-10400930Y545874D01*
X-10407280Y219274D01*
X-12677461Y219274D01*
X-12672897Y593181D01*
X-12647836Y1151546D01*
X-12602719Y1672428D01*
X-12535104Y2170091D01*
X-12442550Y2658798D01*
X-12322616Y3152814D01*
X-12172860Y3666404D01*
X-11990840Y4213831D01*
X-11923878Y4402667D01*
X-11589437Y5233469D01*
X-11193318Y6037027D01*
X-10736333Y6812224D01*
X-10219297Y7557938D01*
X-9643023Y8273052D01*
X-9008326Y8956446D01*
X-8316019Y9607000D01*
X-7860178Y9991768D01*
X-7493976Y10271206D01*
X-7077809Y10558464D01*
X-6627210Y10844107D01*
X-6157713Y11118698D01*
X-5684850Y11372802D01*
X-5224155Y11596981D01*
X-5198534Y11608685D01*
X-4900035Y11736142D01*
X-4553662Y11870055D01*
X-4178061Y12004112D01*
X-3791877Y12132004D01*
X-3413754Y12247419D01*
X-3062340Y12344048D01*
X-2926294Y12377726D01*
X-2528536Y12466334D01*
X-2148913Y12537418D01*
X-1773426Y12592417D01*
X-1388078Y12632770D01*
X-978868Y12659917D01*
X-531800Y12675296D01*
X-32874Y12680348D01*
X16933Y12680344D01*
X16933Y12680344D01*
G37*
X16933Y12680344D02*
X546505Y12674496D01*
X1023142Y12656760D01*
X1460873Y12625413D01*
X1873731Y12578733D01*
X2275745Y12514997D01*
X2680946Y12432483D01*
X3103365Y12329468D01*
X3296553Y12277682D01*
X4186355Y11999333D01*
X5048597Y11660836D01*
X5880011Y11263883D01*
X6677330Y10810164D01*
X7437287Y10301371D01*
X8086440Y9797903D01*
X8759159Y9197475D01*
X9387796Y8551309D01*
X9969433Y7863960D01*
X10501154Y7139982D01*
X10980041Y6383930D01*
X11403177Y5600360D01*
X11767645Y4793827D01*
X12070528Y3968884D01*
X12278545Y3252040D01*
X12419646Y2654767D01*
X12527849Y2091842D01*
X12606324Y1540280D01*
X12658240Y977096D01*
X12686765Y379307D01*
X12689554Y270934D01*
X12677951Y-660466D01*
X12600320Y-1576875D01*
X12456684Y-2478167D01*
X12247067Y-3364218D01*
X11971493Y-4234900D01*
X11697585Y-4934344D01*
X11577768Y-5212808D01*
X11475102Y-5443881D01*
X11381795Y-5643147D01*
X11290055Y-5826189D01*
X11192090Y-6008589D01*
X11080108Y-6205931D01*
X10955841Y-6417733D01*
X10447174Y-7212490D01*
X9892061Y-7957984D01*
X9289936Y-8654783D01*
X8640234Y-9303451D01*
X7942388Y-9904554D01*
X7195835Y-10458657D01*
X6417733Y-10955841D01*
X6192327Y-11087975D01*
X5996431Y-11198808D01*
X5814463Y-11296131D01*
X5630839Y-11387736D01*
X5429977Y-11481415D01*
X5196294Y-11584960D01*
X4934344Y-11697585D01*
X4523748Y-11866322D01*
X4145220Y-12007287D01*
X3773532Y-12128833D01*
X3383457Y-12239312D01*
X3031066Y-12327773D01*
X2329129Y-12479472D01*
X1658859Y-12589026D01*
X1000819Y-12658742D01*
X335568Y-12690925D01*
X-50800Y-12693388D01*
X-269333Y-12691191D01*
X-474650Y-12688181D01*
X-653340Y-12684629D01*
X-791989Y-12680802D01*
X-877185Y-12676971D01*
X-880534Y-12676730D01*
X-1802875Y-12574536D01*
X-2710638Y-12408193D01*
X-3600157Y-12179057D01*
X-4467765Y-11888480D01*
X-5309798Y-11537819D01*
X-6122590Y-11128427D01*
X-6902476Y-10661659D01*
X-7546554Y-10213528D01*
X-8284379Y-9623249D01*
X-8969962Y-8990240D01*
X-9602345Y-8315900D01*
X-10180571Y-7601629D01*
X-10703684Y-6848826D01*
X-11170727Y-6058889D01*
X-11580743Y-5233217D01*
X-11932774Y-4373210D01*
X-12225865Y-3480267D01*
X-12277682Y-3296553D01*
X-12390178Y-2862231D01*
X-12481421Y-2451246D01*
X-12553135Y-2049567D01*
X-12607041Y-1643164D01*
X-12644863Y-1218005D01*
X-12668324Y-760061D01*
X-12679145Y-255301D01*
X-12680344Y-16933D01*
X-12677461Y219274D01*
X-10407280Y219274D01*
X-10406838Y-122649D01*
X-10399734Y-462551D01*
X-10386096Y-783089D01*
X-10366055Y-1066921D01*
X-10350184Y-1219199D01*
X-10214189Y-2061003D01*
X-10015142Y-2878562D01*
X-9753810Y-3670279D01*
X-9430958Y-4434554D01*
X-9047353Y-5169789D01*
X-8603761Y-5874386D01*
X-8100946Y-6546745D01*
X-7539677Y-7185267D01*
X-7444378Y-7284309D01*
X-6871645Y-7826493D01*
X-6249983Y-8329686D01*
X-5590909Y-8785450D01*
X-4905946Y-9185349D01*
X-4710581Y-9286415D01*
X-4393106Y-9442785D01*
X-4114742Y-9571720D01*
X-3856622Y-9680808D01*
X-3599880Y-9777637D01*
X-3325649Y-9869795D01*
X-3048000Y-9955103D01*
X-2240693Y-10165932D01*
X-1448155Y-10312922D01*
X-664204Y-10396645D01*
X117344Y-10417674D01*
X902674Y-10376580D01*
X1186586Y-10346797D01*
X1985867Y-10223305D01*
X2752080Y-10044920D01*
X3495922Y-9808441D01*
X4228089Y-9510672D01*
X4641773Y-9313560D01*
X5369803Y-8914974D01*
X6049978Y-8472369D01*
X6685532Y-7982822D01*
X7279698Y-7443412D01*
X7835708Y-6851219D01*
X8356796Y-6203320D01*
X8818739Y-5539240D01*
X8925941Y-5363488D01*
X9051053Y-5141077D01*
X9186307Y-4887450D01*
X9323940Y-4618053D01*
X9456185Y-4348330D01*
X9575277Y-4093724D01*
X9673450Y-3869681D01*
X9730784Y-3725333D01*
X9999020Y-2908091D01*
X10201242Y-2085739D01*
X10337278Y-1260586D01*
X10406956Y-434943D01*
X10410103Y388879D01*
X10346547Y1208570D01*
X10216115Y2021819D01*
X10174287Y2218267D01*
X10030718Y2799783D01*
X9867274Y3338166D01*
X9675538Y3857038D01*
X9447096Y4380023D01*
X9286415Y4710581D01*
X8886608Y5430998D01*
X8430824Y6115528D01*
X7922338Y6761097D01*
X7364426Y7364634D01*
X6760364Y7923067D01*
X6113426Y8433324D01*
X5426889Y8892332D01*
X4704028Y9297019D01*
X4088854Y9585154D01*
X3356572Y9868438D01*
X2620343Y10090296D01*
X1871597Y10252466D01*
X1101763Y10356690D01*
X302273Y10404707D01*
X33866Y10408504D01*
X-811336Y10381323D01*
X-1628948Y10293242D01*
X-2422270Y10143261D01*
X-3194605Y9930383D01*
X-3949254Y9653610D01*
X-4689520Y9311943D01*
X-5418704Y8904385D01*
X-5848344Y8630425D01*
X-6443259Y8197240D01*
X-7015837Y7708681D01*
X-7559079Y7172955D01*
X-8065984Y6598269D01*
X-8529552Y5992829D01*
X-8942784Y5364841D01*
X-9298680Y4722513D01*
X-9447142Y4411392D01*
X-9709128Y3793326D01*
X-9923448Y3199241D01*
X-10095209Y2610663D01*
X-10229523Y2009115D01*
X-10331496Y1376124D01*
X-10367340Y1083734D01*
X-10387660Y839808D01*
X-10400930Y545874D01*
X-10407280Y219274D01*
X-12677461Y219274D01*
X-12672897Y593181D01*
X-12647836Y1151546D01*
X-12602719Y1672428D01*
X-12535104Y2170091D01*
X-12442550Y2658798D01*
X-12322616Y3152814D01*
X-12172860Y3666404D01*
X-11990840Y4213831D01*
X-11923878Y4402667D01*
X-11589437Y5233469D01*
X-11193318Y6037027D01*
X-10736333Y6812224D01*
X-10219297Y7557938D01*
X-9643023Y8273052D01*
X-9008326Y8956446D01*
X-8316019Y9607000D01*
X-7860178Y9991768D01*
X-7493976Y10271206D01*
X-7077809Y10558464D01*
X-6627210Y10844107D01*
X-6157713Y11118698D01*
X-5684850Y11372802D01*
X-5224155Y11596981D01*
X-5198534Y11608685D01*
X-4900035Y11736142D01*
X-4553662Y11870055D01*
X-4178061Y12004112D01*
X-3791877Y12132004D01*
X-3413754Y12247419D01*
X-3062340Y12344048D01*
X-2926294Y12377726D01*
X-2528536Y12466334D01*
X-2148913Y12537418D01*
X-1773426Y12592417D01*
X-1388078Y12632770D01*
X-978868Y12659917D01*
X-531800Y12675296D01*
X-32874Y12680348D01*
X16933Y12680344D01*
D12*
G36*
X-40701844Y-36922794D02*
G01*
X-39980860Y-37066206D01*
X-39189028Y-37394193D01*
X-38476399Y-37870357D01*
X-37870357Y-38476399D01*
X-37394193Y-39189028D01*
X-37066206Y-39980860D01*
X-36899000Y-40821464D01*
X-36899000Y-41678536D01*
X-37066206Y-42519140D01*
X-37394193Y-43310972D01*
X-37870357Y-44023601D01*
X-38476399Y-44629643D01*
X-39189028Y-45105807D01*
X-39980860Y-45433794D01*
X-40701844Y-45577206D01*
X-40821463Y-45601000D01*
X-41678537Y-45601000D01*
X-41798156Y-45577206D01*
X-42519140Y-45433794D01*
X-43310972Y-45105807D01*
X-44023601Y-44629643D01*
X-44629643Y-44023601D01*
X-45105807Y-43310972D01*
X-45433794Y-42519140D01*
X-45601000Y-41678536D01*
X-45601000Y-40821464D01*
X-45433794Y-39980860D01*
X-45105807Y-39189028D01*
X-44629643Y-38476399D01*
X-44023601Y-37870357D01*
X-43310972Y-37394193D01*
X-42519140Y-37066206D01*
X-41798156Y-36922794D01*
X-41678537Y-36899000D01*
X-40821463Y-36899000D01*
X-40701844Y-36922794D01*
X-40701844Y-36922794D01*
G37*
G36*
X41798156Y-36922794D02*
G01*
X42519140Y-37066206D01*
X43310972Y-37394193D01*
X44023601Y-37870357D01*
X44629643Y-38476399D01*
X45105807Y-39189028D01*
X45433794Y-39980860D01*
X45601000Y-40821464D01*
X45601000Y-41678536D01*
X45433794Y-42519140D01*
X45105807Y-43310972D01*
X44629643Y-44023601D01*
X44023601Y-44629643D01*
X43310972Y-45105807D01*
X42519140Y-45433794D01*
X41798156Y-45577206D01*
X41678537Y-45601000D01*
X40821463Y-45601000D01*
X40701844Y-45577206D01*
X39980860Y-45433794D01*
X39189028Y-45105807D01*
X38476399Y-44629643D01*
X37870357Y-44023601D01*
X37394193Y-43310972D01*
X37066206Y-42519140D01*
X36899000Y-41678536D01*
X36899000Y-40821464D01*
X37066206Y-39980860D01*
X37394193Y-39189028D01*
X37870357Y-38476399D01*
X38476399Y-37870357D01*
X39189028Y-37394193D01*
X39980860Y-37066206D01*
X40701844Y-36922794D01*
X40821463Y-36899000D01*
X41678537Y-36899000D01*
X41798156Y-36922794D01*
X41798156Y-36922794D01*
G37*
G36*
X-40701844Y45577206D02*
G01*
X-39980860Y45433794D01*
X-39189028Y45105807D01*
X-38476399Y44629643D01*
X-37870357Y44023601D01*
X-37394193Y43310972D01*
X-37066206Y42519140D01*
X-36899000Y41678536D01*
X-36899000Y40821464D01*
X-37066206Y39980860D01*
X-37394193Y39189028D01*
X-37870357Y38476399D01*
X-38476399Y37870357D01*
X-39189028Y37394193D01*
X-39980860Y37066206D01*
X-40701844Y36922794D01*
X-40821463Y36899000D01*
X-41678537Y36899000D01*
X-41798156Y36922794D01*
X-42519140Y37066206D01*
X-43310972Y37394193D01*
X-44023601Y37870357D01*
X-44629643Y38476399D01*
X-45105807Y39189028D01*
X-45433794Y39980860D01*
X-45601000Y40821464D01*
X-45601000Y41678536D01*
X-45433794Y42519140D01*
X-45105807Y43310972D01*
X-44629643Y44023601D01*
X-44023601Y44629643D01*
X-43310972Y45105807D01*
X-42519140Y45433794D01*
X-41798156Y45577206D01*
X-41678537Y45601000D01*
X-40821463Y45601000D01*
X-40701844Y45577206D01*
X-40701844Y45577206D01*
G37*
G36*
X41798156Y45577206D02*
G01*
X42519140Y45433794D01*
X43310972Y45105807D01*
X44023601Y44629643D01*
X44629643Y44023601D01*
X45105807Y43310972D01*
X45433794Y42519140D01*
X45601000Y41678536D01*
X45601000Y40821464D01*
X45433794Y39980860D01*
X45105807Y39189028D01*
X44629643Y38476399D01*
X44023601Y37870357D01*
X43310972Y37394193D01*
X42519140Y37066206D01*
X41798156Y36922794D01*
X41678537Y36899000D01*
X40821463Y36899000D01*
X40701844Y36922794D01*
X39980860Y37066206D01*
X39189028Y37394193D01*
X38476399Y37870357D01*
X37870357Y38476399D01*
X37394193Y39189028D01*
X37066206Y39980860D01*
X36899000Y40821464D01*
X36899000Y41678536D01*
X37066206Y42519140D01*
X37394193Y43310972D01*
X37870357Y44023601D01*
X38476399Y44629643D01*
X39189028Y45105807D01*
X39980860Y45433794D01*
X40701844Y45577206D01*
X40821463Y45601000D01*
X41678537Y45601000D01*
X41798156Y45577206D01*
X41798156Y45577206D01*
G37*
M02*
